<mxfile host="app.diagrams.net" modified="2021-06-21T10:23:12.465Z" agent="5.0 (X11; Linux x86_64) AppleWebKit/537.36 (KHTML, like Gecko) Chrome/91.0.4472.106 Safari/537.36" etag="6-TFSVLK2_sfelmFPcN2" version="14.8.0" type="github" pages="9">
  <diagram id="8hu1OYsl2B5Nk4FdEPue" name="ER">
    <mxGraphModel dx="1663" dy="1545" grid="1" gridSize="10" guides="1" tooltips="1" connect="1" arrows="1" fold="1" page="1" pageScale="1" pageWidth="850" pageHeight="1100" math="0" shadow="0">
      <root>
        <mxCell id="0" />
        <mxCell id="1" parent="0" />
        <mxCell id="BUAE27cLnDc9j6du3AyN-14" value="(1, N)" style="edgeStyle=orthogonalEdgeStyle;rounded=0;orthogonalLoop=1;jettySize=auto;html=1;exitX=0.5;exitY=1;exitDx=0;exitDy=0;entryX=0.5;entryY=0;entryDx=0;entryDy=0;endArrow=none;endFill=0;" parent="1" source="BUAE27cLnDc9j6du3AyN-1" target="BUAE27cLnDc9j6du3AyN-13" edge="1">
          <mxGeometry relative="1" as="geometry" />
        </mxCell>
        <mxCell id="BUAE27cLnDc9j6du3AyN-37" value="(0, N)" style="edgeStyle=orthogonalEdgeStyle;rounded=0;orthogonalLoop=1;jettySize=auto;html=1;exitX=1;exitY=0.75;exitDx=0;exitDy=0;entryX=0;entryY=0.5;entryDx=0;entryDy=0;endArrow=none;endFill=0;" parent="1" source="BUAE27cLnDc9j6du3AyN-1" target="BUAE27cLnDc9j6du3AyN-36" edge="1">
          <mxGeometry x="-0.2727" relative="1" as="geometry">
            <mxPoint as="offset" />
            <Array as="points">
              <mxPoint x="110" y="280" />
              <mxPoint x="110" y="350" />
            </Array>
          </mxGeometry>
        </mxCell>
        <mxCell id="NiKR7fWy2TO_Pi9payae-8" style="edgeStyle=orthogonalEdgeStyle;rounded=0;orthogonalLoop=1;jettySize=auto;html=1;exitX=0;exitY=0.25;exitDx=0;exitDy=0;startArrow=none;startFill=0;endArrow=oval;endFill=0;entryX=0.986;entryY=0.521;entryDx=0;entryDy=0;entryPerimeter=0;" parent="1" source="BUAE27cLnDc9j6du3AyN-1" target="NiKR7fWy2TO_Pi9payae-11" edge="1">
          <mxGeometry relative="1" as="geometry">
            <mxPoint x="-70" y="259.66666666666674" as="targetPoint" />
          </mxGeometry>
        </mxCell>
        <mxCell id="NiKR7fWy2TO_Pi9payae-9" style="edgeStyle=orthogonalEdgeStyle;rounded=0;orthogonalLoop=1;jettySize=auto;html=1;exitX=0;exitY=0.5;exitDx=0;exitDy=0;startArrow=none;startFill=0;endArrow=oval;endFill=0;entryX=1.014;entryY=0.498;entryDx=0;entryDy=0;entryPerimeter=0;" parent="1" source="BUAE27cLnDc9j6du3AyN-1" target="NiKR7fWy2TO_Pi9payae-13" edge="1">
          <mxGeometry relative="1" as="geometry">
            <mxPoint x="-70" y="269.66666666666674" as="targetPoint" />
            <Array as="points">
              <mxPoint x="-40" y="280" />
              <mxPoint x="-59" y="280" />
            </Array>
          </mxGeometry>
        </mxCell>
        <mxCell id="NiKR7fWy2TO_Pi9payae-85" value="(0, N)" style="edgeStyle=orthogonalEdgeStyle;rounded=0;orthogonalLoop=1;jettySize=auto;html=1;exitX=1;exitY=0.25;exitDx=0;exitDy=0;entryX=0;entryY=0.5;entryDx=0;entryDy=0;startArrow=none;startFill=0;endArrow=none;endFill=0;" parent="1" source="BUAE27cLnDc9j6du3AyN-1" target="W_fP-iJoIzKbU12CYn2C-6" edge="1">
          <mxGeometry x="0.2941" relative="1" as="geometry">
            <mxPoint as="offset" />
            <mxPoint x="95" y="210" as="targetPoint" />
          </mxGeometry>
        </mxCell>
        <mxCell id="BUAE27cLnDc9j6du3AyN-1" value="File" style="whiteSpace=wrap;html=1;align=center;fillColor=#ffcc99;strokeColor=#36393d;" parent="1" vertex="1">
          <mxGeometry x="-40" y="250" width="100" height="40" as="geometry" />
        </mxCell>
        <mxCell id="BUAE27cLnDc9j6du3AyN-8" value="(0, N)" style="edgeStyle=orthogonalEdgeStyle;rounded=0;orthogonalLoop=1;jettySize=auto;html=1;exitX=0.5;exitY=1;exitDx=0;exitDy=0;entryX=0.5;entryY=0;entryDx=0;entryDy=0;endArrow=none;endFill=0;" parent="1" source="BUAE27cLnDc9j6du3AyN-2" target="BUAE27cLnDc9j6du3AyN-6" edge="1">
          <mxGeometry relative="1" as="geometry" />
        </mxCell>
        <mxCell id="BUAE27cLnDc9j6du3AyN-11" value="(0, N)" style="edgeStyle=orthogonalEdgeStyle;rounded=0;orthogonalLoop=1;jettySize=auto;html=1;exitX=0.75;exitY=0;exitDx=0;exitDy=0;entryX=1;entryY=0.5;entryDx=0;entryDy=0;endArrow=none;endFill=0;" parent="1" source="BUAE27cLnDc9j6du3AyN-2" target="BUAE27cLnDc9j6du3AyN-10" edge="1">
          <mxGeometry relative="1" as="geometry" />
        </mxCell>
        <mxCell id="BUAE27cLnDc9j6du3AyN-34" value="(1, 1)" style="edgeStyle=orthogonalEdgeStyle;rounded=0;orthogonalLoop=1;jettySize=auto;html=1;exitX=1;exitY=0.5;exitDx=0;exitDy=0;entryX=0;entryY=0.5;entryDx=0;entryDy=0;endArrow=none;endFill=0;" parent="1" source="BUAE27cLnDc9j6du3AyN-2" target="BUAE27cLnDc9j6du3AyN-33" edge="1">
          <mxGeometry relative="1" as="geometry" />
        </mxCell>
        <mxCell id="NiKR7fWy2TO_Pi9payae-20" style="edgeStyle=orthogonalEdgeStyle;rounded=0;orthogonalLoop=1;jettySize=auto;html=1;exitX=0;exitY=0;exitDx=0;exitDy=0;startArrow=none;startFill=0;endArrow=oval;endFill=1;entryX=1.071;entryY=0.498;entryDx=0;entryDy=0;entryPerimeter=0;" parent="1" source="BUAE27cLnDc9j6du3AyN-2" target="NiKR7fWy2TO_Pi9payae-21" edge="1">
          <mxGeometry relative="1" as="geometry">
            <mxPoint x="-70" y="-10.047619047619037" as="targetPoint" />
            <Array as="points">
              <mxPoint x="-40" />
            </Array>
          </mxGeometry>
        </mxCell>
        <mxCell id="NiKR7fWy2TO_Pi9payae-23" style="edgeStyle=orthogonalEdgeStyle;rounded=0;orthogonalLoop=1;jettySize=auto;html=1;exitX=0;exitY=0.25;exitDx=0;exitDy=0;startArrow=none;startFill=0;endArrow=oval;endFill=0;" parent="1" source="BUAE27cLnDc9j6du3AyN-2" target="NiKR7fWy2TO_Pi9payae-22" edge="1">
          <mxGeometry relative="1" as="geometry">
            <Array as="points">
              <mxPoint x="-40" y="10" />
            </Array>
          </mxGeometry>
        </mxCell>
        <mxCell id="NiKR7fWy2TO_Pi9payae-25" style="edgeStyle=orthogonalEdgeStyle;rounded=0;orthogonalLoop=1;jettySize=auto;html=1;exitX=0;exitY=0.5;exitDx=0;exitDy=0;entryX=1.011;entryY=0.545;entryDx=0;entryDy=0;entryPerimeter=0;startArrow=none;startFill=0;endArrow=oval;endFill=0;" parent="1" source="BUAE27cLnDc9j6du3AyN-2" target="NiKR7fWy2TO_Pi9payae-24" edge="1">
          <mxGeometry relative="1" as="geometry">
            <Array as="points">
              <mxPoint x="-40" y="21" />
            </Array>
          </mxGeometry>
        </mxCell>
        <mxCell id="BUAE27cLnDc9j6du3AyN-2" value="Directory" style="whiteSpace=wrap;html=1;align=center;fillColor=#ffcc99;strokeColor=#36393d;" parent="1" vertex="1">
          <mxGeometry x="-40" y="-10" width="100" height="40" as="geometry" />
        </mxCell>
        <mxCell id="BUAE27cLnDc9j6du3AyN-17" value="(0, N)" style="edgeStyle=orthogonalEdgeStyle;rounded=0;orthogonalLoop=1;jettySize=auto;html=1;exitX=0.75;exitY=0;exitDx=0;exitDy=0;endArrow=none;endFill=0;entryX=0;entryY=0.5;entryDx=0;entryDy=0;" parent="1" source="BUAE27cLnDc9j6du3AyN-3" target="NiKR7fWy2TO_Pi9payae-31" edge="1">
          <mxGeometry x="0.2941" relative="1" as="geometry">
            <mxPoint x="75" y="500" as="targetPoint" />
            <mxPoint as="offset" />
          </mxGeometry>
        </mxCell>
        <mxCell id="BUAE27cLnDc9j6du3AyN-20" value="(0, N)" style="edgeStyle=orthogonalEdgeStyle;rounded=0;orthogonalLoop=1;jettySize=auto;html=1;exitX=0.5;exitY=1;exitDx=0;exitDy=0;entryX=0;entryY=0.5;entryDx=0;entryDy=0;endArrow=none;endFill=0;" parent="1" source="BUAE27cLnDc9j6du3AyN-3" target="BUAE27cLnDc9j6du3AyN-19" edge="1">
          <mxGeometry relative="1" as="geometry" />
        </mxCell>
        <mxCell id="NiKR7fWy2TO_Pi9payae-2" style="edgeStyle=orthogonalEdgeStyle;rounded=0;orthogonalLoop=1;jettySize=auto;html=1;exitX=0;exitY=0.25;exitDx=0;exitDy=0;endArrow=oval;endFill=0;" parent="1" source="BUAE27cLnDc9j6du3AyN-3" target="NiKR7fWy2TO_Pi9payae-3" edge="1">
          <mxGeometry relative="1" as="geometry">
            <mxPoint x="-75" y="539.8620689655172" as="targetPoint" />
          </mxGeometry>
        </mxCell>
        <mxCell id="NiKR7fWy2TO_Pi9payae-6" style="edgeStyle=orthogonalEdgeStyle;rounded=0;orthogonalLoop=1;jettySize=auto;html=1;exitX=0;exitY=0.75;exitDx=0;exitDy=0;startArrow=none;startFill=0;endArrow=oval;endFill=0;entryX=1;entryY=0.51;entryDx=0;entryDy=0;entryPerimeter=0;" parent="1" source="BUAE27cLnDc9j6du3AyN-3" target="NiKR7fWy2TO_Pi9payae-7" edge="1">
          <mxGeometry relative="1" as="geometry">
            <mxPoint x="-85" y="570.2068965517242" as="targetPoint" />
          </mxGeometry>
        </mxCell>
        <mxCell id="ZbBgJ9GdkpdXDNHvRV2H-2" style="edgeStyle=orthogonalEdgeStyle;rounded=0;orthogonalLoop=1;jettySize=auto;html=1;exitX=1;exitY=0.25;exitDx=0;exitDy=0;entryX=-0.008;entryY=0.492;entryDx=0;entryDy=0;entryPerimeter=0;endArrow=oval;endFill=0;" parent="1" source="BUAE27cLnDc9j6du3AyN-3" target="ZbBgJ9GdkpdXDNHvRV2H-1" edge="1">
          <mxGeometry relative="1" as="geometry" />
        </mxCell>
        <mxCell id="BUAE27cLnDc9j6du3AyN-3" value="Versione" style="whiteSpace=wrap;html=1;align=center;fillColor=#ffcc99;strokeColor=#36393d;" parent="1" vertex="1">
          <mxGeometry x="-40" y="540" width="100" height="40" as="geometry" />
        </mxCell>
        <mxCell id="BUAE27cLnDc9j6du3AyN-9" value="(1, 1)" style="edgeStyle=orthogonalEdgeStyle;rounded=0;orthogonalLoop=1;jettySize=auto;html=1;exitX=0.5;exitY=1;exitDx=0;exitDy=0;entryX=0.5;entryY=0;entryDx=0;entryDy=0;endArrow=none;endFill=0;" parent="1" source="BUAE27cLnDc9j6du3AyN-6" target="BUAE27cLnDc9j6du3AyN-1" edge="1">
          <mxGeometry relative="1" as="geometry" />
        </mxCell>
        <mxCell id="BUAE27cLnDc9j6du3AyN-6" value="Contenimento" style="shape=rhombus;perimeter=rhombusPerimeter;whiteSpace=wrap;html=1;align=center;fillColor=#cdeb8b;strokeColor=#36393d;" parent="1" vertex="1">
          <mxGeometry x="-40" y="110" width="100" height="60" as="geometry" />
        </mxCell>
        <mxCell id="BUAE27cLnDc9j6du3AyN-12" value="(0, 1)" style="edgeStyle=orthogonalEdgeStyle;rounded=0;orthogonalLoop=1;jettySize=auto;html=1;exitX=0;exitY=0.5;exitDx=0;exitDy=0;entryX=0.25;entryY=0;entryDx=0;entryDy=0;endArrow=none;endFill=0;" parent="1" source="BUAE27cLnDc9j6du3AyN-10" target="BUAE27cLnDc9j6du3AyN-2" edge="1">
          <mxGeometry relative="1" as="geometry" />
        </mxCell>
        <mxCell id="BUAE27cLnDc9j6du3AyN-10" value="Residenza" style="shape=rhombus;perimeter=rhombusPerimeter;whiteSpace=wrap;html=1;align=center;fillColor=#cdeb8b;strokeColor=#36393d;" parent="1" vertex="1">
          <mxGeometry x="-40" y="-140" width="100" height="60" as="geometry" />
        </mxCell>
        <mxCell id="BUAE27cLnDc9j6du3AyN-15" value="(1, 1)" style="edgeStyle=orthogonalEdgeStyle;rounded=0;orthogonalLoop=1;jettySize=auto;html=1;exitX=0.5;exitY=1;exitDx=0;exitDy=0;entryX=0.5;entryY=0;entryDx=0;entryDy=0;endArrow=none;endFill=0;" parent="1" source="BUAE27cLnDc9j6du3AyN-13" target="BUAE27cLnDc9j6du3AyN-3" edge="1">
          <mxGeometry relative="1" as="geometry">
            <mxPoint x="5" y="500" as="sourcePoint" />
          </mxGeometry>
        </mxCell>
        <mxCell id="BUAE27cLnDc9j6du3AyN-13" value="Versionamento" style="shape=rhombus;perimeter=rhombusPerimeter;whiteSpace=wrap;html=1;align=center;fillColor=#cdeb8b;strokeColor=#36393d;" parent="1" vertex="1">
          <mxGeometry x="-40" y="390" width="100" height="60" as="geometry" />
        </mxCell>
        <mxCell id="BUAE27cLnDc9j6du3AyN-18" value="(0, N)" style="edgeStyle=orthogonalEdgeStyle;rounded=0;orthogonalLoop=1;jettySize=auto;html=1;entryX=0.25;entryY=1;entryDx=0;entryDy=0;endArrow=none;endFill=0;exitX=0.5;exitY=0;exitDx=0;exitDy=0;" parent="1" source="NiKR7fWy2TO_Pi9payae-33" target="BUAE27cLnDc9j6du3AyN-22" edge="1">
          <mxGeometry relative="1" as="geometry">
            <mxPoint x="380" y="450" as="targetPoint" />
            <mxPoint x="400" y="350" as="sourcePoint" />
            <Array as="points">
              <mxPoint x="390" y="290" />
            </Array>
          </mxGeometry>
        </mxCell>
        <mxCell id="BUAE27cLnDc9j6du3AyN-32" value="(0, N)" style="edgeStyle=orthogonalEdgeStyle;rounded=0;orthogonalLoop=1;jettySize=auto;html=1;entryX=0.5;entryY=1;entryDx=0;entryDy=0;endArrow=none;endFill=0;exitX=0.5;exitY=0;exitDx=0;exitDy=0;" parent="1" source="NiKR7fWy2TO_Pi9payae-28" target="BUAE27cLnDc9j6du3AyN-22" edge="1">
          <mxGeometry relative="1" as="geometry">
            <mxPoint x="455" y="480" as="sourcePoint" />
            <Array as="points">
              <mxPoint x="475" y="290" />
            </Array>
          </mxGeometry>
        </mxCell>
        <mxCell id="NiKR7fWy2TO_Pi9payae-27" value="(1, 1)" style="edgeStyle=orthogonalEdgeStyle;rounded=0;orthogonalLoop=1;jettySize=auto;html=1;exitX=1;exitY=0.5;exitDx=0;exitDy=0;entryX=0;entryY=0.5;entryDx=0;entryDy=0;startArrow=none;startFill=0;endArrow=none;endFill=0;" parent="1" source="BUAE27cLnDc9j6du3AyN-19" target="NiKR7fWy2TO_Pi9payae-26" edge="1">
          <mxGeometry relative="1" as="geometry" />
        </mxCell>
        <mxCell id="BUAE27cLnDc9j6du3AyN-19" value="Visualizzazione Versione" style="shape=rhombus;perimeter=rhombusPerimeter;whiteSpace=wrap;html=1;align=center;fillColor=#cdeb8b;strokeColor=#36393d;" parent="1" vertex="1">
          <mxGeometry x="30" y="610" width="160" height="60" as="geometry" />
        </mxCell>
        <mxCell id="BUAE27cLnDc9j6du3AyN-49" value="(0, N)" style="edgeStyle=orthogonalEdgeStyle;rounded=0;orthogonalLoop=1;jettySize=auto;html=1;entryX=0;entryY=0.5;entryDx=0;entryDy=0;endArrow=none;endFill=0;" parent="1" source="BUAE27cLnDc9j6du3AyN-22" target="BUAE27cLnDc9j6du3AyN-48" edge="1">
          <mxGeometry x="0.22" relative="1" as="geometry">
            <mxPoint x="549.97" y="328.14" as="sourcePoint" />
            <Array as="points">
              <mxPoint x="560" y="368" />
            </Array>
            <mxPoint as="offset" />
          </mxGeometry>
        </mxCell>
        <mxCell id="LFhiFItccEx6oFtxhR4d-33" style="edgeStyle=orthogonalEdgeStyle;rounded=0;orthogonalLoop=1;jettySize=auto;html=1;exitX=1;exitY=0.25;exitDx=0;exitDy=0;entryX=-0.031;entryY=0.579;entryDx=0;entryDy=0;entryPerimeter=0;endArrow=oval;endFill=1;" parent="1" source="BUAE27cLnDc9j6du3AyN-22" target="LFhiFItccEx6oFtxhR4d-27" edge="1">
          <mxGeometry relative="1" as="geometry" />
        </mxCell>
        <mxCell id="LFhiFItccEx6oFtxhR4d-34" style="edgeStyle=orthogonalEdgeStyle;rounded=0;orthogonalLoop=1;jettySize=auto;html=1;exitX=1;exitY=0.5;exitDx=0;exitDy=0;endArrow=oval;endFill=0;entryX=-0.02;entryY=0.507;entryDx=0;entryDy=0;entryPerimeter=0;" parent="1" source="BUAE27cLnDc9j6du3AyN-22" target="LFhiFItccEx6oFtxhR4d-29" edge="1">
          <mxGeometry relative="1" as="geometry">
            <mxPoint x="678" y="262" as="targetPoint" />
          </mxGeometry>
        </mxCell>
        <mxCell id="i0_2KIR2dciA24w5GBMV-4" style="edgeStyle=orthogonalEdgeStyle;rounded=0;orthogonalLoop=1;jettySize=auto;html=1;exitX=0.75;exitY=0;exitDx=0;exitDy=0;entryX=0.507;entryY=1.05;entryDx=0;entryDy=0;entryPerimeter=0;endArrow=oval;endFill=0;" parent="1" source="BUAE27cLnDc9j6du3AyN-22" target="i0_2KIR2dciA24w5GBMV-3" edge="1">
          <mxGeometry relative="1" as="geometry" />
        </mxCell>
        <mxCell id="i0_2KIR2dciA24w5GBMV-6" style="edgeStyle=orthogonalEdgeStyle;rounded=0;orthogonalLoop=1;jettySize=auto;html=1;exitX=0.75;exitY=0;exitDx=0;exitDy=0;entryX=0.5;entryY=1.008;entryDx=0;entryDy=0;entryPerimeter=0;endArrow=oval;endFill=0;" parent="1" source="BUAE27cLnDc9j6du3AyN-22" target="i0_2KIR2dciA24w5GBMV-5" edge="1">
          <mxGeometry relative="1" as="geometry">
            <Array as="points">
              <mxPoint x="625" y="240" />
            </Array>
          </mxGeometry>
        </mxCell>
        <mxCell id="i0_2KIR2dciA24w5GBMV-8" style="edgeStyle=orthogonalEdgeStyle;rounded=0;orthogonalLoop=1;jettySize=auto;html=1;exitX=0.5;exitY=0;exitDx=0;exitDy=0;entryX=0.513;entryY=1.03;entryDx=0;entryDy=0;entryPerimeter=0;endArrow=oval;endFill=0;" parent="1" target="i0_2KIR2dciA24w5GBMV-7" edge="1">
          <mxGeometry relative="1" as="geometry">
            <mxPoint x="525.03" y="240" as="sourcePoint" />
            <Array as="points">
              <mxPoint x="551.03" y="240" />
            </Array>
          </mxGeometry>
        </mxCell>
        <mxCell id="i0_2KIR2dciA24w5GBMV-10" style="edgeStyle=orthogonalEdgeStyle;rounded=0;orthogonalLoop=1;jettySize=auto;html=1;exitX=0.5;exitY=0;exitDx=0;exitDy=0;entryX=0.478;entryY=0.98;entryDx=0;entryDy=0;entryPerimeter=0;endArrow=oval;endFill=0;" parent="1" source="BUAE27cLnDc9j6du3AyN-22" target="i0_2KIR2dciA24w5GBMV-9" edge="1">
          <mxGeometry relative="1" as="geometry">
            <Array as="points">
              <mxPoint x="473" y="240" />
            </Array>
          </mxGeometry>
        </mxCell>
        <mxCell id="BUAE27cLnDc9j6du3AyN-22" value="Utente" style="whiteSpace=wrap;html=1;align=center;fillColor=#ffcc99;strokeColor=#36393d;" parent="1" vertex="1">
          <mxGeometry x="360" y="240" width="300" height="50" as="geometry" />
        </mxCell>
        <mxCell id="BUAE27cLnDc9j6du3AyN-35" value="(1, N)" style="edgeStyle=orthogonalEdgeStyle;rounded=0;orthogonalLoop=1;jettySize=auto;html=1;exitX=0.5;exitY=1;exitDx=0;exitDy=0;entryX=0.21;entryY=0;entryDx=0;entryDy=0;endArrow=none;endFill=0;entryPerimeter=0;" parent="1" source="BUAE27cLnDc9j6du3AyN-33" target="BUAE27cLnDc9j6du3AyN-22" edge="1">
          <mxGeometry relative="1" as="geometry">
            <Array as="points">
              <mxPoint x="405" y="240" />
            </Array>
          </mxGeometry>
        </mxCell>
        <mxCell id="BUAE27cLnDc9j6du3AyN-33" value="Possesso" style="shape=rhombus;perimeter=rhombusPerimeter;whiteSpace=wrap;html=1;align=center;fillColor=#cdeb8b;strokeColor=#36393d;" parent="1" vertex="1">
          <mxGeometry x="340" y="-20" width="130" height="60" as="geometry" />
        </mxCell>
        <mxCell id="BUAE27cLnDc9j6du3AyN-38" value="(0, N)" style="edgeStyle=orthogonalEdgeStyle;rounded=0;orthogonalLoop=1;jettySize=auto;html=1;exitX=1;exitY=0.5;exitDx=0;exitDy=0;entryX=0;entryY=0.75;entryDx=0;entryDy=0;endArrow=none;endFill=0;" parent="1" source="BUAE27cLnDc9j6du3AyN-36" target="BUAE27cLnDc9j6du3AyN-22" edge="1">
          <mxGeometry x="0.2766" relative="1" as="geometry">
            <mxPoint as="offset" />
            <Array as="points">
              <mxPoint x="300" y="350" />
              <mxPoint x="300" y="280" />
              <mxPoint x="360" y="280" />
            </Array>
          </mxGeometry>
        </mxCell>
        <mxCell id="jnjRJxgTBSBaMbtZ5AJn-1" style="edgeStyle=orthogonalEdgeStyle;rounded=0;orthogonalLoop=1;jettySize=auto;html=1;exitX=1;exitY=1;exitDx=0;exitDy=0;entryX=0.505;entryY=-0.06;entryDx=0;entryDy=0;entryPerimeter=0;endArrow=oval;endFill=0;" parent="1" source="BUAE27cLnDc9j6du3AyN-36" target="W_fP-iJoIzKbU12CYn2C-8" edge="1">
          <mxGeometry relative="1" as="geometry" />
        </mxCell>
        <mxCell id="BUAE27cLnDc9j6du3AyN-36" value="Preferenza" style="shape=rhombus;perimeter=rhombusPerimeter;whiteSpace=wrap;html=1;align=center;fillColor=#cdeb8b;strokeColor=#36393d;" parent="1" vertex="1">
          <mxGeometry x="165" y="318.14" width="80" height="60" as="geometry" />
        </mxCell>
        <mxCell id="BUAE27cLnDc9j6du3AyN-56" value="(1, 1)" style="edgeStyle=orthogonalEdgeStyle;rounded=0;orthogonalLoop=1;jettySize=auto;html=1;exitX=1;exitY=0.75;exitDx=0;exitDy=0;entryX=0;entryY=0.5;entryDx=0;entryDy=0;endArrow=none;endFill=0;" parent="1" source="BUAE27cLnDc9j6du3AyN-45" target="BUAE27cLnDc9j6du3AyN-55" edge="1">
          <mxGeometry relative="1" as="geometry" />
        </mxCell>
        <mxCell id="NiKR7fWy2TO_Pi9payae-53" style="edgeStyle=orthogonalEdgeStyle;rounded=0;orthogonalLoop=1;jettySize=auto;html=1;exitX=0.25;exitY=0;exitDx=0;exitDy=0;startArrow=none;startFill=0;endArrow=oval;endFill=1;entryX=0.534;entryY=1.045;entryDx=0;entryDy=0;entryPerimeter=0;" parent="1" source="BUAE27cLnDc9j6du3AyN-45" target="NiKR7fWy2TO_Pi9payae-54" edge="1">
          <mxGeometry relative="1" as="geometry">
            <mxPoint x="804.7975862068968" y="318.14" as="targetPoint" />
          </mxGeometry>
        </mxCell>
        <mxCell id="NiKR7fWy2TO_Pi9payae-55" style="edgeStyle=orthogonalEdgeStyle;rounded=0;orthogonalLoop=1;jettySize=auto;html=1;exitX=0.25;exitY=0;exitDx=0;exitDy=0;startArrow=none;startFill=0;endArrow=oval;endFill=0;entryX=0.517;entryY=0.976;entryDx=0;entryDy=0;entryPerimeter=0;" parent="1" source="BUAE27cLnDc9j6du3AyN-45" target="NiKR7fWy2TO_Pi9payae-56" edge="1">
          <mxGeometry relative="1" as="geometry">
            <mxPoint x="819.97" y="318.14" as="targetPoint" />
          </mxGeometry>
        </mxCell>
        <mxCell id="NiKR7fWy2TO_Pi9payae-59" style="edgeStyle=orthogonalEdgeStyle;rounded=0;orthogonalLoop=1;jettySize=auto;html=1;exitX=0.75;exitY=0;exitDx=0;exitDy=0;startArrow=none;startFill=0;endArrow=oval;endFill=0;entryX=0.492;entryY=0.959;entryDx=0;entryDy=0;entryPerimeter=0;" parent="1" source="BUAE27cLnDc9j6du3AyN-45" target="NiKR7fWy2TO_Pi9payae-60" edge="1">
          <mxGeometry relative="1" as="geometry">
            <mxPoint x="855.1424137931037" y="318.14" as="targetPoint" />
          </mxGeometry>
        </mxCell>
        <mxCell id="BUAE27cLnDc9j6du3AyN-45" value="Segnalazione" style="whiteSpace=wrap;html=1;align=center;fillColor=#ffcc99;strokeColor=#36393d;" parent="1" vertex="1">
          <mxGeometry x="779.97" y="348.14" width="100" height="40" as="geometry" />
        </mxCell>
        <mxCell id="BUAE27cLnDc9j6du3AyN-53" value="(0, N)" style="edgeStyle=orthogonalEdgeStyle;rounded=0;orthogonalLoop=1;jettySize=auto;html=1;entryX=1;entryY=0.5;entryDx=0;entryDy=0;endArrow=none;endFill=0;exitX=0;exitY=0.25;exitDx=0;exitDy=0;" parent="1" source="BUAE27cLnDc9j6du3AyN-46" target="BUAE27cLnDc9j6du3AyN-52" edge="1">
          <mxGeometry relative="1" as="geometry">
            <mxPoint x="819.97" y="238.14" as="sourcePoint" />
          </mxGeometry>
        </mxCell>
        <mxCell id="-wQoasYMb_1IjKPHZ8Oh-1" style="edgeStyle=orthogonalEdgeStyle;rounded=0;orthogonalLoop=1;jettySize=auto;html=1;exitX=1;exitY=0.25;exitDx=0;exitDy=0;endArrow=oval;endFill=1;entryX=-0.003;entryY=0.584;entryDx=0;entryDy=0;entryPerimeter=0;" parent="1" source="BUAE27cLnDc9j6du3AyN-46" target="-wQoasYMb_1IjKPHZ8Oh-2" edge="1">
          <mxGeometry relative="1" as="geometry">
            <mxPoint x="1209.97" y="358.45034482758626" as="targetPoint" />
            <Array as="points">
              <mxPoint x="1180" y="350" />
            </Array>
          </mxGeometry>
        </mxCell>
        <mxCell id="-wQoasYMb_1IjKPHZ8Oh-6" style="edgeStyle=orthogonalEdgeStyle;rounded=0;orthogonalLoop=1;jettySize=auto;html=1;exitX=1;exitY=0.5;exitDx=0;exitDy=0;entryX=-0.048;entryY=0.481;entryDx=0;entryDy=0;entryPerimeter=0;endArrow=oval;endFill=0;" parent="1" source="BUAE27cLnDc9j6du3AyN-46" target="-wQoasYMb_1IjKPHZ8Oh-5" edge="1">
          <mxGeometry relative="1" as="geometry">
            <Array as="points">
              <mxPoint x="1180" y="358" />
            </Array>
          </mxGeometry>
        </mxCell>
        <mxCell id="i0_2KIR2dciA24w5GBMV-12" style="edgeStyle=orthogonalEdgeStyle;rounded=0;orthogonalLoop=1;jettySize=auto;html=1;exitX=1;exitY=0.75;exitDx=0;exitDy=0;entryX=-0.019;entryY=0.503;entryDx=0;entryDy=0;entryPerimeter=0;endArrow=oval;endFill=0;" parent="1" source="BUAE27cLnDc9j6du3AyN-46" target="i0_2KIR2dciA24w5GBMV-11" edge="1">
          <mxGeometry relative="1" as="geometry">
            <Array as="points">
              <mxPoint x="1180" y="370" />
            </Array>
          </mxGeometry>
        </mxCell>
        <mxCell id="eF9rJNyi48iwFsGF-iON-2" style="edgeStyle=orthogonalEdgeStyle;rounded=0;orthogonalLoop=1;jettySize=auto;html=1;exitX=1;exitY=0.75;exitDx=0;exitDy=0;entryX=-0.018;entryY=0.521;entryDx=0;entryDy=0;entryPerimeter=0;endArrow=oval;endFill=0;" parent="1" source="BUAE27cLnDc9j6du3AyN-46" target="eF9rJNyi48iwFsGF-iON-1" edge="1">
          <mxGeometry relative="1" as="geometry">
            <Array as="points">
              <mxPoint x="1180" y="380" />
            </Array>
          </mxGeometry>
        </mxCell>
        <mxCell id="BUAE27cLnDc9j6du3AyN-46" value="Operatore" style="whiteSpace=wrap;html=1;align=center;fillColor=#ffcc99;strokeColor=#36393d;" parent="1" vertex="1">
          <mxGeometry x="1079.97" y="348.14" width="100" height="40" as="geometry" />
        </mxCell>
        <mxCell id="BUAE27cLnDc9j6du3AyN-50" value="(1, 1)" style="edgeStyle=orthogonalEdgeStyle;rounded=0;orthogonalLoop=1;jettySize=auto;html=1;exitX=1;exitY=0.5;exitDx=0;exitDy=0;entryX=0;entryY=0.5;entryDx=0;entryDy=0;endArrow=none;endFill=0;" parent="1" source="BUAE27cLnDc9j6du3AyN-48" target="BUAE27cLnDc9j6du3AyN-45" edge="1">
          <mxGeometry relative="1" as="geometry">
            <mxPoint x="689.97" y="458.14" as="sourcePoint" />
          </mxGeometry>
        </mxCell>
        <mxCell id="BUAE27cLnDc9j6du3AyN-48" value="Apertura" style="shape=rhombus;perimeter=rhombusPerimeter;whiteSpace=wrap;html=1;align=center;fillColor=#cdeb8b;strokeColor=#36393d;" parent="1" vertex="1">
          <mxGeometry x="624.72" y="338.14" width="80" height="60" as="geometry" />
        </mxCell>
        <mxCell id="BUAE27cLnDc9j6du3AyN-54" value="(1, 1)" style="edgeStyle=orthogonalEdgeStyle;rounded=0;orthogonalLoop=1;jettySize=auto;html=1;exitX=0;exitY=0.5;exitDx=0;exitDy=0;entryX=1;entryY=0.25;entryDx=0;entryDy=0;endArrow=none;endFill=0;" parent="1" source="BUAE27cLnDc9j6du3AyN-52" target="BUAE27cLnDc9j6du3AyN-45" edge="1">
          <mxGeometry relative="1" as="geometry" />
        </mxCell>
        <mxCell id="NiKR7fWy2TO_Pi9payae-66" style="edgeStyle=orthogonalEdgeStyle;rounded=0;orthogonalLoop=1;jettySize=auto;html=1;exitX=0;exitY=0;exitDx=0;exitDy=0;entryX=0.45;entryY=1.133;entryDx=0;entryDy=0;entryPerimeter=0;startArrow=none;startFill=0;endArrow=oval;endFill=0;" parent="1" source="BUAE27cLnDc9j6du3AyN-52" target="NiKR7fWy2TO_Pi9payae-63" edge="1">
          <mxGeometry relative="1" as="geometry">
            <mxPoint x="959.6899999999998" y="270.0000000000001" as="targetPoint" />
          </mxGeometry>
        </mxCell>
        <mxCell id="BUAE27cLnDc9j6du3AyN-52" value="Accettazione" style="shape=rhombus;perimeter=rhombusPerimeter;whiteSpace=wrap;html=1;align=center;fillColor=#cdeb8b;strokeColor=#36393d;" parent="1" vertex="1">
          <mxGeometry x="930" y="278.14" width="89.97" height="60" as="geometry" />
        </mxCell>
        <mxCell id="BUAE27cLnDc9j6du3AyN-57" value="(0, N)" style="edgeStyle=orthogonalEdgeStyle;rounded=0;orthogonalLoop=1;jettySize=auto;html=1;exitX=1;exitY=0.5;exitDx=0;exitDy=0;endArrow=none;endFill=0;entryX=0;entryY=0.75;entryDx=0;entryDy=0;" parent="1" source="BUAE27cLnDc9j6du3AyN-55" target="BUAE27cLnDc9j6du3AyN-46" edge="1">
          <mxGeometry relative="1" as="geometry">
            <mxPoint x="839.97" y="228.14" as="targetPoint" />
          </mxGeometry>
        </mxCell>
        <mxCell id="NiKR7fWy2TO_Pi9payae-65" style="edgeStyle=orthogonalEdgeStyle;rounded=0;orthogonalLoop=1;jettySize=auto;html=1;exitX=0;exitY=1;exitDx=0;exitDy=0;entryX=0.5;entryY=0;entryDx=0;entryDy=0;entryPerimeter=0;startArrow=none;startFill=0;endArrow=oval;endFill=0;" parent="1" source="BUAE27cLnDc9j6du3AyN-55" target="NiKR7fWy2TO_Pi9payae-64" edge="1">
          <mxGeometry relative="1" as="geometry" />
        </mxCell>
        <mxCell id="BUAE27cLnDc9j6du3AyN-55" value="Chiusura" style="shape=rhombus;perimeter=rhombusPerimeter;whiteSpace=wrap;html=1;align=center;fillColor=#cdeb8b;strokeColor=#36393d;" parent="1" vertex="1">
          <mxGeometry x="930" y="388.14" width="100" height="60" as="geometry" />
        </mxCell>
        <mxCell id="BUAE27cLnDc9j6du3AyN-66" value="(0, N)" style="edgeStyle=orthogonalEdgeStyle;rounded=0;orthogonalLoop=1;jettySize=auto;html=1;exitX=0.5;exitY=0;exitDx=0;exitDy=0;entryX=0.5;entryY=1;entryDx=0;entryDy=0;endArrow=none;endFill=0;" parent="1" source="BUAE27cLnDc9j6du3AyN-64" target="BUAE27cLnDc9j6du3AyN-45" edge="1">
          <mxGeometry relative="1" as="geometry" />
        </mxCell>
        <mxCell id="BUAE27cLnDc9j6du3AyN-68" value="(1, 1)" style="edgeStyle=orthogonalEdgeStyle;rounded=0;orthogonalLoop=1;jettySize=auto;html=1;exitX=0.5;exitY=1;exitDx=0;exitDy=0;entryX=0.5;entryY=0;entryDx=0;entryDy=0;endArrow=none;endFill=0;" parent="1" source="BUAE27cLnDc9j6du3AyN-64" target="BUAE27cLnDc9j6du3AyN-67" edge="1">
          <mxGeometry relative="1" as="geometry" />
        </mxCell>
        <mxCell id="BUAE27cLnDc9j6du3AyN-64" value="Interessamento" style="shape=rhombus;perimeter=rhombusPerimeter;whiteSpace=wrap;html=1;align=center;fillColor=#cdeb8b;strokeColor=#36393d;" parent="1" vertex="1">
          <mxGeometry x="770" y="438.14" width="120" height="60" as="geometry" />
        </mxCell>
        <mxCell id="NiKR7fWy2TO_Pi9payae-69" style="edgeStyle=orthogonalEdgeStyle;rounded=0;orthogonalLoop=1;jettySize=auto;html=1;exitX=1;exitY=0.25;exitDx=0;exitDy=0;startArrow=none;startFill=0;endArrow=oval;endFill=0;entryX=0.033;entryY=0.525;entryDx=0;entryDy=0;entryPerimeter=0;" parent="1" source="BUAE27cLnDc9j6du3AyN-67" target="NiKR7fWy2TO_Pi9payae-70" edge="1">
          <mxGeometry relative="1" as="geometry">
            <mxPoint x="909.97" y="557.806666666667" as="targetPoint" />
          </mxGeometry>
        </mxCell>
        <mxCell id="NiKR7fWy2TO_Pi9payae-73" style="edgeStyle=orthogonalEdgeStyle;rounded=0;orthogonalLoop=1;jettySize=auto;html=1;exitX=1;exitY=0.75;exitDx=0;exitDy=0;startArrow=none;startFill=0;endArrow=oval;endFill=0;entryX=0.005;entryY=0.483;entryDx=0;entryDy=0;entryPerimeter=0;" parent="1" source="BUAE27cLnDc9j6du3AyN-67" target="NiKR7fWy2TO_Pi9payae-74" edge="1">
          <mxGeometry relative="1" as="geometry">
            <mxPoint x="909.97" y="577.806666666667" as="targetPoint" />
          </mxGeometry>
        </mxCell>
        <mxCell id="-wQoasYMb_1IjKPHZ8Oh-8" style="edgeStyle=orthogonalEdgeStyle;rounded=0;orthogonalLoop=1;jettySize=auto;html=1;exitX=0;exitY=0.25;exitDx=0;exitDy=0;endArrow=oval;endFill=0;" parent="1" source="BUAE27cLnDc9j6du3AyN-67" target="-wQoasYMb_1IjKPHZ8Oh-7" edge="1">
          <mxGeometry relative="1" as="geometry">
            <Array as="points">
              <mxPoint x="743" y="558" />
            </Array>
          </mxGeometry>
        </mxCell>
        <mxCell id="BUAE27cLnDc9j6du3AyN-67" value="Intervento" style="whiteSpace=wrap;html=1;align=center;fillColor=#ffcc99;strokeColor=#36393d;" parent="1" vertex="1">
          <mxGeometry x="779.97" y="548.14" width="100" height="40" as="geometry" />
        </mxCell>
        <mxCell id="-wQoasYMb_1IjKPHZ8Oh-10" style="edgeStyle=orthogonalEdgeStyle;rounded=0;orthogonalLoop=1;jettySize=auto;html=1;exitX=0.5;exitY=0;exitDx=0;exitDy=0;entryX=0.5;entryY=0;entryDx=0;entryDy=0;endArrow=none;endFill=0;" parent="1" source="BUAE27cLnDc9j6du3AyN-70" target="BUAE27cLnDc9j6du3AyN-71" edge="1">
          <mxGeometry relative="1" as="geometry">
            <Array as="points">
              <mxPoint x="768.97" y="648.14" />
              <mxPoint x="901.97" y="648.14" />
            </Array>
          </mxGeometry>
        </mxCell>
        <mxCell id="BUAE27cLnDc9j6du3AyN-70" value="Intervento_utente" style="whiteSpace=wrap;html=1;align=center;fillColor=#ffcc99;strokeColor=#36393d;" parent="1" vertex="1">
          <mxGeometry x="704.72" y="678.14" width="117.5" height="40" as="geometry" />
        </mxCell>
        <mxCell id="BUAE27cLnDc9j6du3AyN-79" value="(1, 1)" style="edgeStyle=orthogonalEdgeStyle;rounded=0;orthogonalLoop=1;jettySize=auto;html=1;exitX=1;exitY=0.5;exitDx=0;exitDy=0;entryX=0.5;entryY=1;entryDx=0;entryDy=0;endArrow=none;endFill=0;" parent="1" source="BUAE27cLnDc9j6du3AyN-71" target="BUAE27cLnDc9j6du3AyN-78" edge="1">
          <mxGeometry relative="1" as="geometry" />
        </mxCell>
        <mxCell id="BUAE27cLnDc9j6du3AyN-71" value="Intervento_operatore" style="whiteSpace=wrap;html=1;align=center;fillColor=#ffcc99;strokeColor=#36393d;" parent="1" vertex="1">
          <mxGeometry x="837.72" y="678.14" width="117.5" height="40" as="geometry" />
        </mxCell>
        <mxCell id="BUAE27cLnDc9j6du3AyN-75" value="(1, 1)" style="edgeStyle=orthogonalEdgeStyle;rounded=0;orthogonalLoop=1;jettySize=auto;html=1;exitX=0.5;exitY=1;exitDx=0;exitDy=0;entryX=0;entryY=0.5;entryDx=0;entryDy=0;endArrow=none;endFill=0;" parent="1" source="BUAE27cLnDc9j6du3AyN-74" target="BUAE27cLnDc9j6du3AyN-70" edge="1">
          <mxGeometry relative="1" as="geometry" />
        </mxCell>
        <mxCell id="BUAE27cLnDc9j6du3AyN-76" value="(0, N)" style="edgeStyle=orthogonalEdgeStyle;rounded=0;orthogonalLoop=1;jettySize=auto;html=1;exitX=0;exitY=0.5;exitDx=0;exitDy=0;entryX=0.57;entryY=1.049;entryDx=0;entryDy=0;endArrow=none;endFill=0;entryPerimeter=0;" parent="1" source="BUAE27cLnDc9j6du3AyN-74" target="BUAE27cLnDc9j6du3AyN-22" edge="1">
          <mxGeometry relative="1" as="geometry">
            <Array as="points">
              <mxPoint x="531" y="568" />
            </Array>
            <mxPoint x="584.97" y="328.1400000000002" as="targetPoint" />
          </mxGeometry>
        </mxCell>
        <mxCell id="BUAE27cLnDc9j6du3AyN-74" value="Utente_Interviene" style="shape=rhombus;perimeter=rhombusPerimeter;whiteSpace=wrap;html=1;align=center;fillColor=#cdeb8b;strokeColor=#36393d;" parent="1" vertex="1">
          <mxGeometry x="559.97" y="538.14" width="120" height="60" as="geometry" />
        </mxCell>
        <mxCell id="BUAE27cLnDc9j6du3AyN-80" value="(0, N)" style="edgeStyle=orthogonalEdgeStyle;rounded=0;orthogonalLoop=1;jettySize=auto;html=1;exitX=0.5;exitY=0;exitDx=0;exitDy=0;entryX=0.5;entryY=1;entryDx=0;entryDy=0;endArrow=none;endFill=0;" parent="1" source="BUAE27cLnDc9j6du3AyN-78" target="BUAE27cLnDc9j6du3AyN-46" edge="1">
          <mxGeometry relative="1" as="geometry" />
        </mxCell>
        <mxCell id="BUAE27cLnDc9j6du3AyN-78" value="Operatore_Interviene" style="shape=rhombus;perimeter=rhombusPerimeter;whiteSpace=wrap;html=1;align=center;fillColor=#cdeb8b;strokeColor=#36393d;" parent="1" vertex="1">
          <mxGeometry x="1059.97" y="508.14" width="140" height="60" as="geometry" />
        </mxCell>
        <mxCell id="NiKR7fWy2TO_Pi9payae-3" value="Numero" style="text;html=1;align=center;verticalAlign=middle;resizable=0;points=[];autosize=1;strokeColor=none;" parent="1" vertex="1">
          <mxGeometry x="-145" y="540" width="60" height="20" as="geometry" />
        </mxCell>
        <mxCell id="NiKR7fWy2TO_Pi9payae-4" value="" style="endArrow=none;html=1;endFill=0;startArrow=oval;startFill=1;" parent="1" edge="1">
          <mxGeometry width="50" height="50" relative="1" as="geometry">
            <mxPoint x="-60" y="560" as="sourcePoint" />
            <mxPoint x="20" y="350" as="targetPoint" />
            <Array as="points">
              <mxPoint x="-60" y="350" />
            </Array>
          </mxGeometry>
        </mxCell>
        <mxCell id="NiKR7fWy2TO_Pi9payae-7" value="DataCreazione" style="text;html=1;align=center;verticalAlign=middle;resizable=0;points=[];autosize=1;strokeColor=none;" parent="1" vertex="1">
          <mxGeometry x="-155" y="560" width="100" height="20" as="geometry" />
        </mxCell>
        <mxCell id="NiKR7fWy2TO_Pi9payae-11" value="Nome" style="text;html=1;align=center;verticalAlign=middle;resizable=0;points=[];autosize=1;strokeColor=none;" parent="1" vertex="1">
          <mxGeometry x="-115" y="250" width="50" height="20" as="geometry" />
        </mxCell>
        <mxCell id="NiKR7fWy2TO_Pi9payae-13" value="Estensione" style="text;html=1;align=center;verticalAlign=middle;resizable=0;points=[];autosize=1;strokeColor=none;" parent="1" vertex="1">
          <mxGeometry x="-145" y="270" width="80" height="20" as="geometry" />
        </mxCell>
        <mxCell id="NiKR7fWy2TO_Pi9payae-21" value="Id" style="text;html=1;align=center;verticalAlign=middle;resizable=0;points=[];autosize=1;strokeColor=none;" parent="1" vertex="1">
          <mxGeometry x="-90" y="-10" width="30" height="20" as="geometry" />
        </mxCell>
        <mxCell id="NiKR7fWy2TO_Pi9payae-22" value="Nome" style="text;html=1;align=center;verticalAlign=middle;resizable=0;points=[];autosize=1;strokeColor=none;" parent="1" vertex="1">
          <mxGeometry x="-115" width="50" height="20" as="geometry" />
        </mxCell>
        <mxCell id="NiKR7fWy2TO_Pi9payae-24" value="DataCreazione" style="text;html=1;align=center;verticalAlign=middle;resizable=0;points=[];autosize=1;strokeColor=none;" parent="1" vertex="1">
          <mxGeometry x="-155" y="10" width="100" height="20" as="geometry" />
        </mxCell>
        <mxCell id="NiKR7fWy2TO_Pi9payae-47" style="edgeStyle=orthogonalEdgeStyle;rounded=0;orthogonalLoop=1;jettySize=auto;html=1;exitX=0.25;exitY=1;exitDx=0;exitDy=0;entryX=0.505;entryY=-0.107;entryDx=0;entryDy=0;entryPerimeter=0;startArrow=none;startFill=0;endArrow=oval;endFill=1;" parent="1" source="NiKR7fWy2TO_Pi9payae-26" target="NiKR7fWy2TO_Pi9payae-46" edge="1">
          <mxGeometry relative="1" as="geometry">
            <mxPoint x="280.48" y="688.7199999999998" as="targetPoint" />
          </mxGeometry>
        </mxCell>
        <mxCell id="NiKR7fWy2TO_Pi9payae-51" style="edgeStyle=orthogonalEdgeStyle;rounded=0;orthogonalLoop=1;jettySize=auto;html=1;exitX=0.5;exitY=1;exitDx=0;exitDy=0;startArrow=none;startFill=0;endArrow=oval;endFill=0;" parent="1" source="NiKR7fWy2TO_Pi9payae-26" edge="1">
          <mxGeometry relative="1" as="geometry">
            <mxPoint x="318" y="697" as="targetPoint" />
            <Array as="points">
              <mxPoint x="318" y="660" />
              <mxPoint x="318" y="697" />
            </Array>
          </mxGeometry>
        </mxCell>
        <mxCell id="NiKR7fWy2TO_Pi9payae-26" value="Visualizzazione" style="whiteSpace=wrap;html=1;align=center;fillColor=#ffcc99;strokeColor=#36393d;" parent="1" vertex="1">
          <mxGeometry x="230" y="620" width="100" height="40" as="geometry" />
        </mxCell>
        <mxCell id="NiKR7fWy2TO_Pi9payae-29" value="(1, 1)" style="edgeStyle=orthogonalEdgeStyle;rounded=0;orthogonalLoop=1;jettySize=auto;html=1;exitX=0;exitY=0.5;exitDx=0;exitDy=0;entryX=1;entryY=0.5;entryDx=0;entryDy=0;startArrow=none;startFill=0;endArrow=none;endFill=0;" parent="1" source="NiKR7fWy2TO_Pi9payae-28" target="NiKR7fWy2TO_Pi9payae-26" edge="1">
          <mxGeometry relative="1" as="geometry" />
        </mxCell>
        <mxCell id="NiKR7fWy2TO_Pi9payae-28" value="Visualizzazione Utente" style="shape=rhombus;perimeter=rhombusPerimeter;whiteSpace=wrap;html=1;align=center;fillColor=#cdeb8b;strokeColor=#36393d;" parent="1" vertex="1">
          <mxGeometry x="400" y="610" width="150" height="60" as="geometry" />
        </mxCell>
        <mxCell id="NiKR7fWy2TO_Pi9payae-35" style="edgeStyle=orthogonalEdgeStyle;rounded=0;orthogonalLoop=1;jettySize=auto;html=1;exitX=0;exitY=0.25;exitDx=0;exitDy=0;startArrow=none;startFill=0;endArrow=oval;endFill=1;entryX=1.007;entryY=0.55;entryDx=0;entryDy=0;entryPerimeter=0;" parent="1" source="NiKR7fWy2TO_Pi9payae-30" target="NiKR7fWy2TO_Pi9payae-36" edge="1">
          <mxGeometry relative="1" as="geometry">
            <mxPoint x="235" y="549.8571428571429" as="targetPoint" />
          </mxGeometry>
        </mxCell>
        <mxCell id="NiKR7fWy2TO_Pi9payae-44" style="edgeStyle=orthogonalEdgeStyle;rounded=0;orthogonalLoop=1;jettySize=auto;html=1;exitX=0;exitY=0.75;exitDx=0;exitDy=0;entryX=0.993;entryY=0.55;entryDx=0;entryDy=0;entryPerimeter=0;startArrow=none;startFill=0;endArrow=oval;endFill=0;" parent="1" source="NiKR7fWy2TO_Pi9payae-30" target="NiKR7fWy2TO_Pi9payae-40" edge="1">
          <mxGeometry relative="1" as="geometry">
            <mxPoint x="251.44000000000005" y="569" as="targetPoint" />
            <Array as="points">
              <mxPoint x="270" y="571" />
            </Array>
          </mxGeometry>
        </mxCell>
        <mxCell id="NiKR7fWy2TO_Pi9payae-30" value="Download" style="whiteSpace=wrap;html=1;align=center;fillColor=#ffcc99;strokeColor=#36393d;" parent="1" vertex="1">
          <mxGeometry x="270" y="540" width="100" height="40" as="geometry" />
        </mxCell>
        <mxCell id="NiKR7fWy2TO_Pi9payae-32" value="(1, 1)" style="edgeStyle=orthogonalEdgeStyle;rounded=0;orthogonalLoop=1;jettySize=auto;html=1;exitX=1;exitY=0.5;exitDx=0;exitDy=0;entryX=0.5;entryY=0;entryDx=0;entryDy=0;startArrow=none;startFill=0;endArrow=none;endFill=0;" parent="1" source="NiKR7fWy2TO_Pi9payae-31" target="NiKR7fWy2TO_Pi9payae-30" edge="1">
          <mxGeometry x="0.619" relative="1" as="geometry">
            <mxPoint as="offset" />
          </mxGeometry>
        </mxCell>
        <mxCell id="NiKR7fWy2TO_Pi9payae-31" value="Scaricamento Versione" style="shape=rhombus;perimeter=rhombusPerimeter;whiteSpace=wrap;html=1;align=center;fillColor=#cdeb8b;strokeColor=#36393d;" parent="1" vertex="1">
          <mxGeometry x="90" y="470" width="160" height="60" as="geometry" />
        </mxCell>
        <mxCell id="NiKR7fWy2TO_Pi9payae-34" value="(1, 1)" style="edgeStyle=orthogonalEdgeStyle;rounded=0;orthogonalLoop=1;jettySize=auto;html=1;exitX=0.5;exitY=1;exitDx=0;exitDy=0;entryX=1;entryY=0.5;entryDx=0;entryDy=0;startArrow=none;startFill=0;endArrow=none;endFill=0;" parent="1" source="NiKR7fWy2TO_Pi9payae-33" target="NiKR7fWy2TO_Pi9payae-30" edge="1">
          <mxGeometry relative="1" as="geometry">
            <mxPoint x="395" y="510" as="sourcePoint" />
          </mxGeometry>
        </mxCell>
        <mxCell id="NiKR7fWy2TO_Pi9payae-33" value="Scaricamento Utente" style="shape=rhombus;perimeter=rhombusPerimeter;whiteSpace=wrap;html=1;align=center;fillColor=#cdeb8b;strokeColor=#36393d;" parent="1" vertex="1">
          <mxGeometry x="320" y="388.14" width="140" height="60" as="geometry" />
        </mxCell>
        <mxCell id="NiKR7fWy2TO_Pi9payae-36" value="Id" style="text;html=1;align=center;verticalAlign=middle;resizable=0;points=[];autosize=1;strokeColor=none;" parent="1" vertex="1">
          <mxGeometry x="200" y="540" width="30" height="20" as="geometry" />
        </mxCell>
        <mxCell id="NiKR7fWy2TO_Pi9payae-40" value="DataDownload" style="text;html=1;align=center;verticalAlign=middle;resizable=0;points=[];autosize=1;strokeColor=none;" parent="1" vertex="1">
          <mxGeometry x="150" y="560" width="90" height="20" as="geometry" />
        </mxCell>
        <mxCell id="NiKR7fWy2TO_Pi9payae-46" value="Id" style="text;html=1;align=center;verticalAlign=middle;resizable=0;points=[];autosize=1;strokeColor=none;" parent="1" vertex="1">
          <mxGeometry x="235" y="678.14" width="30" height="20" as="geometry" />
        </mxCell>
        <mxCell id="NiKR7fWy2TO_Pi9payae-49" value="DataVisualizzazione" style="text;html=1;align=center;verticalAlign=middle;resizable=0;points=[];autosize=1;strokeColor=none;" parent="1" vertex="1">
          <mxGeometry x="260" y="698.14" width="120" height="20" as="geometry" />
        </mxCell>
        <mxCell id="NiKR7fWy2TO_Pi9payae-54" value="Id" style="text;html=1;align=center;verticalAlign=middle;resizable=0;points=[];autosize=1;strokeColor=none;" parent="1" vertex="1">
          <mxGeometry x="779.97" y="318.14" width="30" height="20" as="geometry" />
        </mxCell>
        <mxCell id="NiKR7fWy2TO_Pi9payae-56" value="Data" style="text;html=1;align=center;verticalAlign=middle;resizable=0;points=[];autosize=1;strokeColor=none;" parent="1" vertex="1">
          <mxGeometry x="787.47" y="290" width="40" height="20" as="geometry" />
        </mxCell>
        <mxCell id="NiKR7fWy2TO_Pi9payae-60" value="Descrizione" style="text;html=1;align=center;verticalAlign=middle;resizable=0;points=[];autosize=1;strokeColor=none;" parent="1" vertex="1">
          <mxGeometry x="812.47" y="310" width="80" height="20" as="geometry" />
        </mxCell>
        <mxCell id="NiKR7fWy2TO_Pi9payae-63" value="DataAccettazione" style="text;html=1;align=center;verticalAlign=middle;resizable=0;points=[];autosize=1;strokeColor=none;" parent="1" vertex="1">
          <mxGeometry x="904.97" y="240" width="110" height="20" as="geometry" />
        </mxCell>
        <mxCell id="NiKR7fWy2TO_Pi9payae-64" value="DataChiusura" style="text;html=1;align=center;verticalAlign=middle;resizable=0;points=[];autosize=1;strokeColor=none;" parent="1" vertex="1">
          <mxGeometry x="909.97" y="458.14" width="90" height="20" as="geometry" />
        </mxCell>
        <mxCell id="NiKR7fWy2TO_Pi9payae-70" value="Numero" style="text;html=1;align=center;verticalAlign=middle;resizable=0;points=[];autosize=1;strokeColor=none;" parent="1" vertex="1">
          <mxGeometry x="907.47" y="548.14" width="60" height="20" as="geometry" />
        </mxCell>
        <mxCell id="NiKR7fWy2TO_Pi9payae-71" value="" style="endArrow=oval;html=1;endFill=1;" parent="1" edge="1">
          <mxGeometry width="50" height="50" relative="1" as="geometry">
            <mxPoint x="819.97" y="428.14" as="sourcePoint" />
            <mxPoint x="899.97" y="568.14" as="targetPoint" />
            <Array as="points">
              <mxPoint x="899.97" y="428.14" />
            </Array>
          </mxGeometry>
        </mxCell>
        <mxCell id="NiKR7fWy2TO_Pi9payae-74" value="Messaggio" style="text;html=1;align=center;verticalAlign=middle;resizable=0;points=[];autosize=1;strokeColor=none;" parent="1" vertex="1">
          <mxGeometry x="909.97" y="568.14" width="70" height="20" as="geometry" />
        </mxCell>
        <mxCell id="NiKR7fWy2TO_Pi9payae-88" value="(0, N)" style="edgeStyle=orthogonalEdgeStyle;rounded=0;orthogonalLoop=1;jettySize=auto;html=1;exitX=1;exitY=0.5;exitDx=0;exitDy=0;entryX=0;entryY=0.25;entryDx=0;entryDy=0;startArrow=none;startFill=0;endArrow=none;endFill=0;" parent="1" source="W_fP-iJoIzKbU12CYn2C-6" target="BUAE27cLnDc9j6du3AyN-22" edge="1">
          <mxGeometry x="-0.2497" relative="1" as="geometry">
            <mxPoint as="offset" />
            <mxPoint x="330" y="210" as="sourcePoint" />
          </mxGeometry>
        </mxCell>
        <mxCell id="-wQoasYMb_1IjKPHZ8Oh-2" value="Codice" style="text;html=1;align=center;verticalAlign=middle;resizable=0;points=[];autosize=1;strokeColor=none;" parent="1" vertex="1">
          <mxGeometry x="1199.97" y="338.14" width="50" height="20" as="geometry" />
        </mxCell>
        <mxCell id="-wQoasYMb_1IjKPHZ8Oh-5" value="Nome" style="text;html=1;align=center;verticalAlign=middle;resizable=0;points=[];autosize=1;strokeColor=none;" parent="1" vertex="1">
          <mxGeometry x="1209.97" y="348.14" width="50" height="20" as="geometry" />
        </mxCell>
        <mxCell id="-wQoasYMb_1IjKPHZ8Oh-7" value="DataIntervento" style="text;html=1;align=center;verticalAlign=middle;resizable=0;points=[];autosize=1;strokeColor=none;" parent="1" vertex="1">
          <mxGeometry x="697.47" y="530" width="90" height="20" as="geometry" />
        </mxCell>
        <mxCell id="-wQoasYMb_1IjKPHZ8Oh-11" value="" style="html=1;shadow=0;dashed=0;align=center;verticalAlign=middle;shape=mxgraph.arrows2.arrow;dy=0.6;dx=40;direction=north;notch=0;" parent="1" vertex="1">
          <mxGeometry x="812.47" y="588.14" width="35" height="60" as="geometry" />
        </mxCell>
        <mxCell id="-wQoasYMb_1IjKPHZ8Oh-12" value="(t, e)" style="text;html=1;align=center;verticalAlign=middle;resizable=0;points=[];autosize=1;strokeColor=none;" parent="1" vertex="1">
          <mxGeometry x="837.72" y="628.14" width="40" height="20" as="geometry" />
        </mxCell>
        <mxCell id="LFhiFItccEx6oFtxhR4d-27" value="Email" style="text;html=1;align=center;verticalAlign=middle;resizable=0;points=[];autosize=1;strokeColor=none;" parent="1" vertex="1">
          <mxGeometry x="674.97" y="240" width="50" height="20" as="geometry" />
        </mxCell>
        <mxCell id="LFhiFItccEx6oFtxhR4d-29" value="Password" style="text;html=1;align=center;verticalAlign=middle;resizable=0;points=[];autosize=1;strokeColor=none;" parent="1" vertex="1">
          <mxGeometry x="679.97" y="255" width="70" height="20" as="geometry" />
        </mxCell>
        <mxCell id="pbPSG1BOsDn9FURRHefF-2" value="Link" style="text;html=1;align=center;verticalAlign=middle;resizable=0;points=[];autosize=1;strokeColor=none;" parent="1" vertex="1">
          <mxGeometry x="75" y="560" width="40" height="20" as="geometry" />
        </mxCell>
        <mxCell id="pbPSG1BOsDn9FURRHefF-3" style="edgeStyle=orthogonalEdgeStyle;rounded=0;orthogonalLoop=1;jettySize=auto;html=1;exitX=1;exitY=0.5;exitDx=0;exitDy=0;startArrow=none;startFill=0;endArrow=oval;endFill=0;entryX=-0.019;entryY=0.595;entryDx=0;entryDy=0;entryPerimeter=0;" parent="1" source="BUAE27cLnDc9j6du3AyN-3" target="pbPSG1BOsDn9FURRHefF-2" edge="1">
          <mxGeometry relative="1" as="geometry">
            <mxPoint x="-65" y="580.2" as="targetPoint" />
            <mxPoint x="70" y="560" as="sourcePoint" />
            <Array as="points">
              <mxPoint x="60" y="572" />
            </Array>
          </mxGeometry>
        </mxCell>
        <mxCell id="i0_2KIR2dciA24w5GBMV-1" value="" style="endArrow=none;html=1;endFill=0;startArrow=oval;startFill=1;" parent="1" edge="1">
          <mxGeometry width="50" height="50" relative="1" as="geometry">
            <mxPoint x="-55" y="290" as="sourcePoint" />
            <mxPoint x="50" y="95" as="targetPoint" />
            <Array as="points">
              <mxPoint x="-55" y="95" />
            </Array>
          </mxGeometry>
        </mxCell>
        <mxCell id="i0_2KIR2dciA24w5GBMV-3" value="Nome" style="text;html=1;align=center;verticalAlign=middle;resizable=0;points=[];autosize=1;strokeColor=none;" parent="1" vertex="1">
          <mxGeometry x="559.97" y="200" width="50" height="20" as="geometry" />
        </mxCell>
        <mxCell id="i0_2KIR2dciA24w5GBMV-5" value="Cognome" style="text;html=1;align=center;verticalAlign=middle;resizable=0;points=[];autosize=1;strokeColor=none;" parent="1" vertex="1">
          <mxGeometry x="590" y="180" width="70" height="20" as="geometry" />
        </mxCell>
        <mxCell id="i0_2KIR2dciA24w5GBMV-7" value="DataNascita" style="text;html=1;align=center;verticalAlign=middle;resizable=0;points=[];autosize=1;strokeColor=none;" parent="1" vertex="1">
          <mxGeometry x="510" y="180" width="80" height="20" as="geometry" />
        </mxCell>
        <mxCell id="i0_2KIR2dciA24w5GBMV-9" value="DataRegistrazione" style="text;html=1;align=center;verticalAlign=middle;resizable=0;points=[];autosize=1;strokeColor=none;" parent="1" vertex="1">
          <mxGeometry x="420" y="200" width="110" height="20" as="geometry" />
        </mxCell>
        <mxCell id="i0_2KIR2dciA24w5GBMV-11" value="DataNascita" style="text;html=1;align=center;verticalAlign=middle;resizable=0;points=[];autosize=1;strokeColor=none;" parent="1" vertex="1">
          <mxGeometry x="1199.97" y="360" width="80" height="20" as="geometry" />
        </mxCell>
        <mxCell id="eF9rJNyi48iwFsGF-iON-1" value="Password" style="text;html=1;align=center;verticalAlign=middle;resizable=0;points=[];autosize=1;strokeColor=none;" parent="1" vertex="1">
          <mxGeometry x="1204.97" y="370" width="70" height="20" as="geometry" />
        </mxCell>
        <mxCell id="ZbBgJ9GdkpdXDNHvRV2H-1" value="Dimensione" style="text;html=1;align=center;verticalAlign=middle;resizable=0;points=[];autosize=1;strokeColor=none;" parent="1" vertex="1">
          <mxGeometry x="70" y="540" width="80" height="20" as="geometry" />
        </mxCell>
        <mxCell id="W_fP-iJoIzKbU12CYn2C-1" value="(0, 1)" style="edgeStyle=orthogonalEdgeStyle;rounded=0;orthogonalLoop=1;jettySize=auto;html=1;exitX=0.18;exitY=0.321;exitDx=0;exitDy=0;entryX=0.517;entryY=1.114;entryDx=0;entryDy=0;entryPerimeter=0;startArrow=none;startFill=0;endArrow=oval;endFill=0;exitPerimeter=0;" parent="1" source="W_fP-iJoIzKbU12CYn2C-6" target="W_fP-iJoIzKbU12CYn2C-3" edge="1">
          <mxGeometry relative="1" as="geometry">
            <mxPoint x="177.2" y="119.97" as="sourcePoint" />
          </mxGeometry>
        </mxCell>
        <mxCell id="W_fP-iJoIzKbU12CYn2C-2" value="(0, 1)" style="edgeStyle=orthogonalEdgeStyle;rounded=0;orthogonalLoop=1;jettySize=auto;html=1;exitX=0.5;exitY=0;exitDx=0;exitDy=0;startArrow=none;startFill=0;endArrow=oval;endFill=0;" parent="1" source="W_fP-iJoIzKbU12CYn2C-6" target="W_fP-iJoIzKbU12CYn2C-4" edge="1">
          <mxGeometry relative="1" as="geometry">
            <mxPoint x="202.2" y="119.97000000000003" as="sourcePoint" />
          </mxGeometry>
        </mxCell>
        <mxCell id="W_fP-iJoIzKbU12CYn2C-3" value="Lettura" style="text;html=1;align=center;verticalAlign=middle;resizable=0;points=[];autosize=1;strokeColor=none;" parent="1" vertex="1">
          <mxGeometry x="130" y="130" width="50" height="20" as="geometry" />
        </mxCell>
        <mxCell id="W_fP-iJoIzKbU12CYn2C-4" value="Scrittura" style="text;html=1;align=center;verticalAlign=middle;resizable=0;points=[];autosize=1;strokeColor=none;" parent="1" vertex="1">
          <mxGeometry x="175" y="100" width="60" height="20" as="geometry" />
        </mxCell>
        <mxCell id="W_fP-iJoIzKbU12CYn2C-5" style="edgeStyle=orthogonalEdgeStyle;rounded=0;orthogonalLoop=1;jettySize=auto;html=1;exitX=1;exitY=0;exitDx=0;exitDy=0;endArrow=oval;endFill=0;entryX=0.451;entryY=1.014;entryDx=0;entryDy=0;entryPerimeter=0;" parent="1" source="W_fP-iJoIzKbU12CYn2C-6" target="W_fP-iJoIzKbU12CYn2C-7" edge="1">
          <mxGeometry relative="1" as="geometry">
            <Array as="points">
              <mxPoint x="270" y="175" />
              <mxPoint x="270" y="150" />
            </Array>
            <mxPoint x="260" y="150" as="targetPoint" />
          </mxGeometry>
        </mxCell>
        <mxCell id="W_fP-iJoIzKbU12CYn2C-6" value="Condivisione" style="shape=rhombus;perimeter=rhombusPerimeter;whiteSpace=wrap;html=1;align=center;fillColor=#cdeb8b;strokeColor=#36393d;" parent="1" vertex="1">
          <mxGeometry x="160" y="160" width="90" height="60" as="geometry" />
        </mxCell>
        <mxCell id="W_fP-iJoIzKbU12CYn2C-7" value="DataCondivisione" style="text;html=1;align=center;verticalAlign=middle;resizable=0;points=[];autosize=1;strokeColor=none;" parent="1" vertex="1">
          <mxGeometry x="220" y="120" width="110" height="20" as="geometry" />
        </mxCell>
        <mxCell id="W_fP-iJoIzKbU12CYn2C-8" value="DataPreferenza" style="text;html=1;align=center;verticalAlign=middle;resizable=0;points=[];autosize=1;strokeColor=none;" parent="1" vertex="1">
          <mxGeometry x="200" y="388.14" width="100" height="20" as="geometry" />
        </mxCell>
        <mxCell id="WLjyhK6V6-49RAIcsF9_-1" value="padre" style="text;html=1;align=center;verticalAlign=middle;resizable=0;points=[];autosize=1;strokeColor=none;" vertex="1" parent="1">
          <mxGeometry x="80" y="-90" width="50" height="20" as="geometry" />
        </mxCell>
        <mxCell id="WLjyhK6V6-49RAIcsF9_-2" value="figlio" style="text;html=1;align=center;verticalAlign=middle;resizable=0;points=[];autosize=1;strokeColor=none;" vertex="1" parent="1">
          <mxGeometry x="-100" y="-90" width="40" height="20" as="geometry" />
        </mxCell>
      </root>
    </mxGraphModel>
  </diagram>
  <diagram id="mAu8_FK9X2w96pMouPoq" name="Scheletro">
    <mxGraphModel dx="1422" dy="1878" grid="1" gridSize="10" guides="1" tooltips="1" connect="1" arrows="1" fold="1" page="1" pageScale="1" pageWidth="850" pageHeight="1100" math="0" shadow="0">
      <root>
        <mxCell id="jyaMgvkOQ-whHVO-UzHC-0" />
        <mxCell id="jyaMgvkOQ-whHVO-UzHC-1" parent="jyaMgvkOQ-whHVO-UzHC-0" />
        <mxCell id="HJYsZ4NvhxhMaAt6Myrh-8" style="edgeStyle=orthogonalEdgeStyle;rounded=0;orthogonalLoop=1;jettySize=auto;html=1;exitX=0.25;exitY=1;exitDx=0;exitDy=0;entryX=0.512;entryY=-0.064;entryDx=0;entryDy=0;entryPerimeter=0;endArrow=oval;endFill=0;" parent="jyaMgvkOQ-whHVO-UzHC-1" source="WPskaNofY8i-GhIPNlig-3" target="HJYsZ4NvhxhMaAt6Myrh-6" edge="1">
          <mxGeometry relative="1" as="geometry" />
        </mxCell>
        <mxCell id="HJYsZ4NvhxhMaAt6Myrh-9" style="edgeStyle=orthogonalEdgeStyle;rounded=0;orthogonalLoop=1;jettySize=auto;html=1;exitX=0.5;exitY=1;exitDx=0;exitDy=0;entryX=0.5;entryY=0;entryDx=0;entryDy=0;entryPerimeter=0;endArrow=oval;endFill=0;" parent="jyaMgvkOQ-whHVO-UzHC-1" source="WPskaNofY8i-GhIPNlig-3" target="HJYsZ4NvhxhMaAt6Myrh-7" edge="1">
          <mxGeometry relative="1" as="geometry" />
        </mxCell>
        <mxCell id="HJYsZ4NvhxhMaAt6Myrh-11" style="edgeStyle=orthogonalEdgeStyle;rounded=0;orthogonalLoop=1;jettySize=auto;html=1;exitX=0.75;exitY=1;exitDx=0;exitDy=0;entryX=0.515;entryY=-0.064;entryDx=0;entryDy=0;entryPerimeter=0;endArrow=oval;endFill=0;" parent="jyaMgvkOQ-whHVO-UzHC-1" source="WPskaNofY8i-GhIPNlig-3" target="HJYsZ4NvhxhMaAt6Myrh-10" edge="1">
          <mxGeometry relative="1" as="geometry" />
        </mxCell>
        <mxCell id="WPskaNofY8i-GhIPNlig-3" value="Utente" style="whiteSpace=wrap;html=1;align=center;fillColor=#ffcc99;strokeColor=#36393d;" parent="jyaMgvkOQ-whHVO-UzHC-1" vertex="1">
          <mxGeometry x="480" y="70" width="90" height="50" as="geometry" />
        </mxCell>
        <mxCell id="WPskaNofY8i-GhIPNlig-4" value="(1, 1)" style="edgeStyle=orthogonalEdgeStyle;rounded=0;orthogonalLoop=1;jettySize=auto;html=1;exitX=0.5;exitY=1;exitDx=0;exitDy=0;entryX=0.5;entryY=0;entryDx=0;entryDy=0;endArrow=none;endFill=0;" parent="jyaMgvkOQ-whHVO-UzHC-1" source="WPskaNofY8i-GhIPNlig-5" target="WPskaNofY8i-GhIPNlig-10" edge="1">
          <mxGeometry relative="1" as="geometry" />
        </mxCell>
        <mxCell id="WPskaNofY8i-GhIPNlig-5" value="Contenimento" style="shape=rhombus;perimeter=rhombusPerimeter;whiteSpace=wrap;html=1;align=center;fillColor=#cdeb8b;strokeColor=#36393d;" parent="jyaMgvkOQ-whHVO-UzHC-1" vertex="1">
          <mxGeometry x="130" y="150" width="100" height="60" as="geometry" />
        </mxCell>
        <mxCell id="WPskaNofY8i-GhIPNlig-7" value="(1, N)" style="edgeStyle=orthogonalEdgeStyle;rounded=0;orthogonalLoop=1;jettySize=auto;html=1;exitX=1;exitY=0.5;exitDx=0;exitDy=0;entryX=0;entryY=0.5;entryDx=0;entryDy=0;endArrow=none;endFill=0;" parent="jyaMgvkOQ-whHVO-UzHC-1" source="WPskaNofY8i-GhIPNlig-10" target="WPskaNofY8i-GhIPNlig-22" edge="1">
          <mxGeometry relative="1" as="geometry" />
        </mxCell>
        <mxCell id="WPskaNofY8i-GhIPNlig-10" value="File" style="whiteSpace=wrap;html=1;align=center;fillColor=#ffcc99;strokeColor=#36393d;" parent="jyaMgvkOQ-whHVO-UzHC-1" vertex="1">
          <mxGeometry x="135" y="240" width="90" height="50" as="geometry" />
        </mxCell>
        <mxCell id="WPskaNofY8i-GhIPNlig-11" value="(0, N)" style="edgeStyle=orthogonalEdgeStyle;rounded=0;orthogonalLoop=1;jettySize=auto;html=1;exitX=0.5;exitY=1;exitDx=0;exitDy=0;endArrow=none;endFill=0;" parent="jyaMgvkOQ-whHVO-UzHC-1" source="WPskaNofY8i-GhIPNlig-14" target="WPskaNofY8i-GhIPNlig-5" edge="1">
          <mxGeometry relative="1" as="geometry" />
        </mxCell>
        <mxCell id="WPskaNofY8i-GhIPNlig-12" value="(0, N)" style="edgeStyle=orthogonalEdgeStyle;rounded=0;orthogonalLoop=1;jettySize=auto;html=1;exitX=0;exitY=0.25;exitDx=0;exitDy=0;entryX=0;entryY=0.5;entryDx=0;entryDy=0;endArrow=none;endFill=0;" parent="jyaMgvkOQ-whHVO-UzHC-1" source="WPskaNofY8i-GhIPNlig-14" target="WPskaNofY8i-GhIPNlig-16" edge="1">
          <mxGeometry relative="1" as="geometry" />
        </mxCell>
        <mxCell id="WPskaNofY8i-GhIPNlig-13" value="(1, 1)" style="edgeStyle=orthogonalEdgeStyle;rounded=0;orthogonalLoop=1;jettySize=auto;html=1;exitX=1;exitY=0.5;exitDx=0;exitDy=0;entryX=0;entryY=0.5;entryDx=0;entryDy=0;endArrow=none;endFill=0;" parent="jyaMgvkOQ-whHVO-UzHC-1" source="WPskaNofY8i-GhIPNlig-14" target="WPskaNofY8i-GhIPNlig-18" edge="1">
          <mxGeometry relative="1" as="geometry" />
        </mxCell>
        <mxCell id="WPskaNofY8i-GhIPNlig-14" value="Directory" style="whiteSpace=wrap;html=1;align=center;fillColor=#ffcc99;strokeColor=#36393d;" parent="jyaMgvkOQ-whHVO-UzHC-1" vertex="1">
          <mxGeometry x="135" y="70" width="90" height="50" as="geometry" />
        </mxCell>
        <mxCell id="WPskaNofY8i-GhIPNlig-15" value="(0, 1)" style="edgeStyle=orthogonalEdgeStyle;rounded=0;orthogonalLoop=1;jettySize=auto;html=1;exitX=1;exitY=0.5;exitDx=0;exitDy=0;entryX=1;entryY=0.25;entryDx=0;entryDy=0;endArrow=none;endFill=0;" parent="jyaMgvkOQ-whHVO-UzHC-1" source="WPskaNofY8i-GhIPNlig-16" target="WPskaNofY8i-GhIPNlig-14" edge="1">
          <mxGeometry relative="1" as="geometry" />
        </mxCell>
        <mxCell id="WPskaNofY8i-GhIPNlig-16" value="Residenza" style="shape=rhombus;perimeter=rhombusPerimeter;whiteSpace=wrap;html=1;align=center;fillColor=#cdeb8b;strokeColor=#36393d;" parent="jyaMgvkOQ-whHVO-UzHC-1" vertex="1">
          <mxGeometry x="130" y="-10" width="100" height="60" as="geometry" />
        </mxCell>
        <mxCell id="WPskaNofY8i-GhIPNlig-17" value="(1, N)" style="edgeStyle=orthogonalEdgeStyle;rounded=0;orthogonalLoop=1;jettySize=auto;html=1;exitX=1;exitY=0.5;exitDx=0;exitDy=0;entryX=0;entryY=0.5;entryDx=0;entryDy=0;endArrow=none;endFill=0;" parent="jyaMgvkOQ-whHVO-UzHC-1" source="WPskaNofY8i-GhIPNlig-18" target="WPskaNofY8i-GhIPNlig-3" edge="1">
          <mxGeometry relative="1" as="geometry" />
        </mxCell>
        <mxCell id="WPskaNofY8i-GhIPNlig-18" value="Possesso" style="shape=rhombus;perimeter=rhombusPerimeter;whiteSpace=wrap;html=1;align=center;fillColor=#cdeb8b;strokeColor=#36393d;" parent="jyaMgvkOQ-whHVO-UzHC-1" vertex="1">
          <mxGeometry x="290" y="65" width="140" height="60" as="geometry" />
        </mxCell>
        <mxCell id="WPskaNofY8i-GhIPNlig-21" value="(1, 1)" style="edgeStyle=orthogonalEdgeStyle;rounded=0;orthogonalLoop=1;jettySize=auto;html=1;exitX=1;exitY=0.5;exitDx=0;exitDy=0;entryX=0;entryY=0.5;entryDx=0;entryDy=0;endArrow=none;endFill=0;" parent="jyaMgvkOQ-whHVO-UzHC-1" source="WPskaNofY8i-GhIPNlig-22" target="WPskaNofY8i-GhIPNlig-24" edge="1">
          <mxGeometry relative="1" as="geometry" />
        </mxCell>
        <mxCell id="WPskaNofY8i-GhIPNlig-22" value="Composizione" style="shape=rhombus;perimeter=rhombusPerimeter;whiteSpace=wrap;html=1;align=center;fillColor=#cdeb8b;strokeColor=#36393d;" parent="jyaMgvkOQ-whHVO-UzHC-1" vertex="1">
          <mxGeometry x="310" y="235" width="100" height="60" as="geometry" />
        </mxCell>
        <mxCell id="WPskaNofY8i-GhIPNlig-24" value="Versione" style="whiteSpace=wrap;html=1;align=center;fillColor=#ffcc99;strokeColor=#36393d;" parent="jyaMgvkOQ-whHVO-UzHC-1" vertex="1">
          <mxGeometry x="480" y="240" width="90" height="50" as="geometry" />
        </mxCell>
        <mxCell id="HJYsZ4NvhxhMaAt6Myrh-0" style="edgeStyle=orthogonalEdgeStyle;rounded=0;orthogonalLoop=1;jettySize=auto;html=1;exitX=1.004;exitY=0.147;exitDx=0;exitDy=0;entryX=-0.031;entryY=0.579;entryDx=0;entryDy=0;entryPerimeter=0;endArrow=oval;endFill=1;exitPerimeter=0;" parent="jyaMgvkOQ-whHVO-UzHC-1" source="WPskaNofY8i-GhIPNlig-3" target="HJYsZ4NvhxhMaAt6Myrh-3" edge="1">
          <mxGeometry relative="1" as="geometry">
            <mxPoint x="590" y="77.5" as="sourcePoint" />
          </mxGeometry>
        </mxCell>
        <mxCell id="HJYsZ4NvhxhMaAt6Myrh-1" style="edgeStyle=orthogonalEdgeStyle;rounded=0;orthogonalLoop=1;jettySize=auto;html=1;exitX=1.01;exitY=0.402;exitDx=0;exitDy=0;endArrow=oval;endFill=0;entryX=-0.02;entryY=0.507;entryDx=0;entryDy=0;entryPerimeter=0;exitPerimeter=0;" parent="jyaMgvkOQ-whHVO-UzHC-1" source="WPskaNofY8i-GhIPNlig-3" target="HJYsZ4NvhxhMaAt6Myrh-4" edge="1">
          <mxGeometry relative="1" as="geometry">
            <mxPoint x="608" y="87" as="targetPoint" />
            <mxPoint x="590" y="90" as="sourcePoint" />
          </mxGeometry>
        </mxCell>
        <mxCell id="HJYsZ4NvhxhMaAt6Myrh-2" style="edgeStyle=orthogonalEdgeStyle;rounded=0;orthogonalLoop=1;jettySize=auto;html=1;exitX=1.007;exitY=0.713;exitDx=0;exitDy=0;entryX=-0.017;entryY=0.529;entryDx=0;entryDy=0;entryPerimeter=0;endArrow=oval;endFill=0;exitPerimeter=0;" parent="jyaMgvkOQ-whHVO-UzHC-1" source="WPskaNofY8i-GhIPNlig-3" target="HJYsZ4NvhxhMaAt6Myrh-5" edge="1">
          <mxGeometry relative="1" as="geometry">
            <Array as="points" />
            <mxPoint x="590" y="102.5" as="sourcePoint" />
          </mxGeometry>
        </mxCell>
        <mxCell id="HJYsZ4NvhxhMaAt6Myrh-3" value="Email" style="text;html=1;align=center;verticalAlign=middle;resizable=0;points=[];autosize=1;strokeColor=none;" parent="jyaMgvkOQ-whHVO-UzHC-1" vertex="1">
          <mxGeometry x="604.97" y="65" width="50" height="20" as="geometry" />
        </mxCell>
        <mxCell id="HJYsZ4NvhxhMaAt6Myrh-4" value="Password" style="text;html=1;align=center;verticalAlign=middle;resizable=0;points=[];autosize=1;strokeColor=none;" parent="jyaMgvkOQ-whHVO-UzHC-1" vertex="1">
          <mxGeometry x="609.97" y="80" width="70" height="20" as="geometry" />
        </mxCell>
        <mxCell id="HJYsZ4NvhxhMaAt6Myrh-5" value="DataRegistrazione" style="text;html=1;align=center;verticalAlign=middle;resizable=0;points=[];autosize=1;strokeColor=none;" parent="jyaMgvkOQ-whHVO-UzHC-1" vertex="1">
          <mxGeometry x="609.97" y="95" width="110" height="20" as="geometry" />
        </mxCell>
        <mxCell id="HJYsZ4NvhxhMaAt6Myrh-6" value="Nome" style="text;html=1;align=center;verticalAlign=middle;resizable=0;points=[];autosize=1;strokeColor=none;" parent="jyaMgvkOQ-whHVO-UzHC-1" vertex="1">
          <mxGeometry x="470" y="135" width="50" height="20" as="geometry" />
        </mxCell>
        <mxCell id="HJYsZ4NvhxhMaAt6Myrh-7" value="Cognome" style="text;html=1;align=center;verticalAlign=middle;resizable=0;points=[];autosize=1;strokeColor=none;" parent="jyaMgvkOQ-whHVO-UzHC-1" vertex="1">
          <mxGeometry x="485" y="150" width="70" height="20" as="geometry" />
        </mxCell>
        <mxCell id="HJYsZ4NvhxhMaAt6Myrh-10" value="DataNascita" style="text;html=1;align=center;verticalAlign=middle;resizable=0;points=[];autosize=1;strokeColor=none;" parent="jyaMgvkOQ-whHVO-UzHC-1" vertex="1">
          <mxGeometry x="520" y="135" width="80" height="20" as="geometry" />
        </mxCell>
      </root>
    </mxGraphModel>
  </diagram>
  <diagram id="iVGv8esjKXuaAmVk0Kud" name="FileSystem">
    <mxGraphModel dx="474" dy="259" grid="1" gridSize="10" guides="1" tooltips="1" connect="1" arrows="1" fold="1" page="1" pageScale="1" pageWidth="850" pageHeight="1100" math="0" shadow="0">
      <root>
        <mxCell id="MW8t2zaK6TABfONugJJv-0" />
        <mxCell id="MW8t2zaK6TABfONugJJv-1" parent="MW8t2zaK6TABfONugJJv-0" />
        <mxCell id="paTXLz1XFqO_1bIFHry1-0" value="(1, N)" style="edgeStyle=orthogonalEdgeStyle;rounded=0;orthogonalLoop=1;jettySize=auto;html=1;exitX=0.5;exitY=1;exitDx=0;exitDy=0;entryX=0.5;entryY=0;entryDx=0;entryDy=0;endArrow=none;endFill=0;" parent="MW8t2zaK6TABfONugJJv-1" source="paTXLz1XFqO_1bIFHry1-6" target="paTXLz1XFqO_1bIFHry1-22" edge="1">
          <mxGeometry relative="1" as="geometry" />
        </mxCell>
        <mxCell id="paTXLz1XFqO_1bIFHry1-1" style="edgeStyle=orthogonalEdgeStyle;rounded=0;orthogonalLoop=1;jettySize=auto;html=1;exitX=0;exitY=0.25;exitDx=0;exitDy=0;startArrow=none;startFill=0;endArrow=oval;endFill=0;entryX=0.986;entryY=0.521;entryDx=0;entryDy=0;entryPerimeter=0;" parent="MW8t2zaK6TABfONugJJv-1" source="paTXLz1XFqO_1bIFHry1-6" target="paTXLz1XFqO_1bIFHry1-26" edge="1">
          <mxGeometry relative="1" as="geometry">
            <mxPoint x="210" y="379.66666666666674" as="targetPoint" />
            <Array as="points">
              <mxPoint x="214" y="380" />
            </Array>
          </mxGeometry>
        </mxCell>
        <mxCell id="paTXLz1XFqO_1bIFHry1-2" style="edgeStyle=orthogonalEdgeStyle;rounded=0;orthogonalLoop=1;jettySize=auto;html=1;exitX=0;exitY=0.5;exitDx=0;exitDy=0;startArrow=none;startFill=0;endArrow=oval;endFill=0;entryX=1.014;entryY=0.498;entryDx=0;entryDy=0;entryPerimeter=0;" parent="MW8t2zaK6TABfONugJJv-1" source="paTXLz1XFqO_1bIFHry1-6" target="paTXLz1XFqO_1bIFHry1-27" edge="1">
          <mxGeometry relative="1" as="geometry">
            <mxPoint x="210" y="389.66666666666674" as="targetPoint" />
            <Array as="points">
              <mxPoint x="240" y="400" />
            </Array>
          </mxGeometry>
        </mxCell>
        <mxCell id="paTXLz1XFqO_1bIFHry1-6" value="File" style="whiteSpace=wrap;html=1;align=center;fillColor=#ffcc99;strokeColor=#36393d;" parent="MW8t2zaK6TABfONugJJv-1" vertex="1">
          <mxGeometry x="240" y="370" width="100" height="40" as="geometry" />
        </mxCell>
        <mxCell id="paTXLz1XFqO_1bIFHry1-7" value="(0, N)" style="edgeStyle=orthogonalEdgeStyle;rounded=0;orthogonalLoop=1;jettySize=auto;html=1;exitX=0.5;exitY=1;exitDx=0;exitDy=0;entryX=0.5;entryY=0;entryDx=0;entryDy=0;endArrow=none;endFill=0;" parent="MW8t2zaK6TABfONugJJv-1" source="paTXLz1XFqO_1bIFHry1-12" target="paTXLz1XFqO_1bIFHry1-18" edge="1">
          <mxGeometry relative="1" as="geometry" />
        </mxCell>
        <mxCell id="paTXLz1XFqO_1bIFHry1-8" value="(0, N)" style="edgeStyle=orthogonalEdgeStyle;rounded=0;orthogonalLoop=1;jettySize=auto;html=1;exitX=0.75;exitY=0;exitDx=0;exitDy=0;entryX=1;entryY=0.5;entryDx=0;entryDy=0;endArrow=none;endFill=0;" parent="MW8t2zaK6TABfONugJJv-1" source="paTXLz1XFqO_1bIFHry1-12" target="paTXLz1XFqO_1bIFHry1-20" edge="1">
          <mxGeometry relative="1" as="geometry" />
        </mxCell>
        <mxCell id="paTXLz1XFqO_1bIFHry1-9" style="edgeStyle=orthogonalEdgeStyle;rounded=0;orthogonalLoop=1;jettySize=auto;html=1;exitX=0;exitY=0;exitDx=0;exitDy=0;startArrow=none;startFill=0;endArrow=oval;endFill=1;entryX=1.071;entryY=0.498;entryDx=0;entryDy=0;entryPerimeter=0;" parent="MW8t2zaK6TABfONugJJv-1" source="paTXLz1XFqO_1bIFHry1-12" target="paTXLz1XFqO_1bIFHry1-30" edge="1">
          <mxGeometry relative="1" as="geometry">
            <mxPoint x="210" y="169.95238095238096" as="targetPoint" />
            <Array as="points">
              <mxPoint x="240" y="180" />
            </Array>
          </mxGeometry>
        </mxCell>
        <mxCell id="paTXLz1XFqO_1bIFHry1-10" style="edgeStyle=orthogonalEdgeStyle;rounded=0;orthogonalLoop=1;jettySize=auto;html=1;exitX=0;exitY=0.25;exitDx=0;exitDy=0;startArrow=none;startFill=0;endArrow=oval;endFill=0;" parent="MW8t2zaK6TABfONugJJv-1" source="paTXLz1XFqO_1bIFHry1-12" target="paTXLz1XFqO_1bIFHry1-31" edge="1">
          <mxGeometry relative="1" as="geometry">
            <Array as="points">
              <mxPoint x="240" y="190" />
            </Array>
          </mxGeometry>
        </mxCell>
        <mxCell id="paTXLz1XFqO_1bIFHry1-11" style="edgeStyle=orthogonalEdgeStyle;rounded=0;orthogonalLoop=1;jettySize=auto;html=1;exitX=0;exitY=0.5;exitDx=0;exitDy=0;entryX=1.011;entryY=0.545;entryDx=0;entryDy=0;entryPerimeter=0;startArrow=none;startFill=0;endArrow=oval;endFill=0;" parent="MW8t2zaK6TABfONugJJv-1" source="paTXLz1XFqO_1bIFHry1-12" target="paTXLz1XFqO_1bIFHry1-32" edge="1">
          <mxGeometry relative="1" as="geometry">
            <Array as="points">
              <mxPoint x="240" y="201" />
            </Array>
          </mxGeometry>
        </mxCell>
        <mxCell id="paTXLz1XFqO_1bIFHry1-12" value="Directory" style="whiteSpace=wrap;html=1;align=center;fillColor=#ffcc99;strokeColor=#36393d;" parent="MW8t2zaK6TABfONugJJv-1" vertex="1">
          <mxGeometry x="240" y="170" width="100" height="40" as="geometry" />
        </mxCell>
        <mxCell id="paTXLz1XFqO_1bIFHry1-14" style="edgeStyle=orthogonalEdgeStyle;rounded=0;orthogonalLoop=1;jettySize=auto;html=1;exitX=0;exitY=0.25;exitDx=0;exitDy=0;endArrow=oval;endFill=0;" parent="MW8t2zaK6TABfONugJJv-1" source="paTXLz1XFqO_1bIFHry1-16" target="paTXLz1XFqO_1bIFHry1-23" edge="1">
          <mxGeometry relative="1" as="geometry">
            <mxPoint x="205" y="559.8620689655172" as="targetPoint" />
          </mxGeometry>
        </mxCell>
        <mxCell id="paTXLz1XFqO_1bIFHry1-15" style="edgeStyle=orthogonalEdgeStyle;rounded=0;orthogonalLoop=1;jettySize=auto;html=1;exitX=0;exitY=0.75;exitDx=0;exitDy=0;startArrow=none;startFill=0;endArrow=oval;endFill=0;entryX=1;entryY=0.51;entryDx=0;entryDy=0;entryPerimeter=0;" parent="MW8t2zaK6TABfONugJJv-1" source="paTXLz1XFqO_1bIFHry1-16" target="paTXLz1XFqO_1bIFHry1-25" edge="1">
          <mxGeometry relative="1" as="geometry">
            <mxPoint x="195" y="590.2068965517242" as="targetPoint" />
          </mxGeometry>
        </mxCell>
        <mxCell id="ghh0HLgnF1vPSPP-fJrD-11" style="edgeStyle=orthogonalEdgeStyle;rounded=0;orthogonalLoop=1;jettySize=auto;html=1;exitX=1;exitY=0.25;exitDx=0;exitDy=0;entryX=0.002;entryY=0.481;entryDx=0;entryDy=0;entryPerimeter=0;endArrow=oval;endFill=0;" parent="MW8t2zaK6TABfONugJJv-1" source="paTXLz1XFqO_1bIFHry1-16" target="ghh0HLgnF1vPSPP-fJrD-10" edge="1">
          <mxGeometry relative="1" as="geometry" />
        </mxCell>
        <mxCell id="paTXLz1XFqO_1bIFHry1-16" value="Versione" style="whiteSpace=wrap;html=1;align=center;fillColor=#ffcc99;strokeColor=#36393d;" parent="MW8t2zaK6TABfONugJJv-1" vertex="1">
          <mxGeometry x="240" y="560" width="100" height="40" as="geometry" />
        </mxCell>
        <mxCell id="paTXLz1XFqO_1bIFHry1-17" value="(1, 1)" style="edgeStyle=orthogonalEdgeStyle;rounded=0;orthogonalLoop=1;jettySize=auto;html=1;exitX=0.5;exitY=1;exitDx=0;exitDy=0;entryX=0.5;entryY=0;entryDx=0;entryDy=0;endArrow=none;endFill=0;" parent="MW8t2zaK6TABfONugJJv-1" source="paTXLz1XFqO_1bIFHry1-18" target="paTXLz1XFqO_1bIFHry1-6" edge="1">
          <mxGeometry relative="1" as="geometry" />
        </mxCell>
        <mxCell id="paTXLz1XFqO_1bIFHry1-18" value="Contenimento" style="shape=rhombus;perimeter=rhombusPerimeter;whiteSpace=wrap;html=1;align=center;fillColor=#cdeb8b;strokeColor=#36393d;" parent="MW8t2zaK6TABfONugJJv-1" vertex="1">
          <mxGeometry x="240" y="260" width="100" height="60" as="geometry" />
        </mxCell>
        <mxCell id="paTXLz1XFqO_1bIFHry1-19" value="(1, 1)" style="edgeStyle=orthogonalEdgeStyle;rounded=0;orthogonalLoop=1;jettySize=auto;html=1;exitX=0;exitY=0.5;exitDx=0;exitDy=0;entryX=0.25;entryY=0;entryDx=0;entryDy=0;endArrow=none;endFill=0;" parent="MW8t2zaK6TABfONugJJv-1" source="paTXLz1XFqO_1bIFHry1-20" target="paTXLz1XFqO_1bIFHry1-12" edge="1">
          <mxGeometry relative="1" as="geometry" />
        </mxCell>
        <mxCell id="paTXLz1XFqO_1bIFHry1-20" value="Residenza" style="shape=rhombus;perimeter=rhombusPerimeter;whiteSpace=wrap;html=1;align=center;fillColor=#cdeb8b;strokeColor=#36393d;" parent="MW8t2zaK6TABfONugJJv-1" vertex="1">
          <mxGeometry x="240" y="40" width="100" height="60" as="geometry" />
        </mxCell>
        <mxCell id="paTXLz1XFqO_1bIFHry1-21" value="(1, 1)" style="edgeStyle=orthogonalEdgeStyle;rounded=0;orthogonalLoop=1;jettySize=auto;html=1;exitX=0.5;exitY=1;exitDx=0;exitDy=0;entryX=0.5;entryY=0;entryDx=0;entryDy=0;endArrow=none;endFill=0;" parent="MW8t2zaK6TABfONugJJv-1" source="paTXLz1XFqO_1bIFHry1-22" target="paTXLz1XFqO_1bIFHry1-16" edge="1">
          <mxGeometry relative="1" as="geometry">
            <mxPoint x="285" y="570" as="sourcePoint" />
          </mxGeometry>
        </mxCell>
        <mxCell id="paTXLz1XFqO_1bIFHry1-22" value="Versionamento" style="shape=rhombus;perimeter=rhombusPerimeter;whiteSpace=wrap;html=1;align=center;fillColor=#cdeb8b;strokeColor=#36393d;" parent="MW8t2zaK6TABfONugJJv-1" vertex="1">
          <mxGeometry x="240" y="460" width="100" height="60" as="geometry" />
        </mxCell>
        <mxCell id="paTXLz1XFqO_1bIFHry1-23" value="Numero" style="text;html=1;align=center;verticalAlign=middle;resizable=0;points=[];autosize=1;strokeColor=none;" parent="MW8t2zaK6TABfONugJJv-1" vertex="1">
          <mxGeometry x="135" y="560" width="60" height="20" as="geometry" />
        </mxCell>
        <mxCell id="paTXLz1XFqO_1bIFHry1-24" value="" style="endArrow=none;html=1;endFill=0;startArrow=oval;startFill=1;" parent="MW8t2zaK6TABfONugJJv-1" edge="1">
          <mxGeometry width="50" height="50" relative="1" as="geometry">
            <mxPoint x="220" y="580" as="sourcePoint" />
            <mxPoint x="299.99999999999955" y="445" as="targetPoint" />
            <Array as="points">
              <mxPoint x="220" y="445" />
            </Array>
          </mxGeometry>
        </mxCell>
        <mxCell id="paTXLz1XFqO_1bIFHry1-25" value="DataCreazione" style="text;html=1;align=center;verticalAlign=middle;resizable=0;points=[];autosize=1;strokeColor=none;" parent="MW8t2zaK6TABfONugJJv-1" vertex="1">
          <mxGeometry x="105" y="580" width="100" height="20" as="geometry" />
        </mxCell>
        <mxCell id="paTXLz1XFqO_1bIFHry1-26" value="Nome" style="text;html=1;align=center;verticalAlign=middle;resizable=0;points=[];autosize=1;strokeColor=none;" parent="MW8t2zaK6TABfONugJJv-1" vertex="1">
          <mxGeometry x="165" y="370" width="50" height="20" as="geometry" />
        </mxCell>
        <mxCell id="paTXLz1XFqO_1bIFHry1-27" value="Estensione" style="text;html=1;align=center;verticalAlign=middle;resizable=0;points=[];autosize=1;strokeColor=none;" parent="MW8t2zaK6TABfONugJJv-1" vertex="1">
          <mxGeometry x="140" y="390" width="80" height="20" as="geometry" />
        </mxCell>
        <mxCell id="paTXLz1XFqO_1bIFHry1-30" value="Id" style="text;html=1;align=center;verticalAlign=middle;resizable=0;points=[];autosize=1;strokeColor=none;" parent="MW8t2zaK6TABfONugJJv-1" vertex="1">
          <mxGeometry x="195" y="170" width="30" height="20" as="geometry" />
        </mxCell>
        <mxCell id="paTXLz1XFqO_1bIFHry1-31" value="Nome" style="text;html=1;align=center;verticalAlign=middle;resizable=0;points=[];autosize=1;strokeColor=none;" parent="MW8t2zaK6TABfONugJJv-1" vertex="1">
          <mxGeometry x="155" y="180" width="50" height="20" as="geometry" />
        </mxCell>
        <mxCell id="paTXLz1XFqO_1bIFHry1-32" value="DataCreazione" style="text;html=1;align=center;verticalAlign=middle;resizable=0;points=[];autosize=1;strokeColor=none;" parent="MW8t2zaK6TABfONugJJv-1" vertex="1">
          <mxGeometry x="130" y="190" width="100" height="20" as="geometry" />
        </mxCell>
        <mxCell id="AmYO8zcaBsE41D15C37b-0" value="Link" style="text;html=1;align=center;verticalAlign=middle;resizable=0;points=[];autosize=1;strokeColor=none;" parent="MW8t2zaK6TABfONugJJv-1" vertex="1">
          <mxGeometry x="360" y="580" width="40" height="20" as="geometry" />
        </mxCell>
        <mxCell id="AmYO8zcaBsE41D15C37b-2" style="edgeStyle=orthogonalEdgeStyle;rounded=0;orthogonalLoop=1;jettySize=auto;html=1;exitX=1;exitY=0.75;exitDx=0;exitDy=0;startArrow=none;startFill=0;endArrow=oval;endFill=0;entryX=-0.019;entryY=0.595;entryDx=0;entryDy=0;entryPerimeter=0;" parent="MW8t2zaK6TABfONugJJv-1" source="paTXLz1XFqO_1bIFHry1-16" target="AmYO8zcaBsE41D15C37b-0" edge="1">
          <mxGeometry relative="1" as="geometry">
            <mxPoint x="205" y="600.2" as="targetPoint" />
            <mxPoint x="250" y="600" as="sourcePoint" />
            <Array as="points">
              <mxPoint x="340" y="592" />
              <mxPoint x="359" y="592" />
            </Array>
          </mxGeometry>
        </mxCell>
        <mxCell id="nVSs8oPSD-YOF5UIDKWs-0" value="" style="endArrow=none;html=1;endFill=0;startArrow=oval;startFill=1;" parent="MW8t2zaK6TABfONugJJv-1" edge="1">
          <mxGeometry width="50" height="50" relative="1" as="geometry">
            <mxPoint x="230" y="410" as="sourcePoint" />
            <mxPoint x="320" y="250" as="targetPoint" />
            <Array as="points">
              <mxPoint x="230" y="250" />
            </Array>
          </mxGeometry>
        </mxCell>
        <mxCell id="ghh0HLgnF1vPSPP-fJrD-10" value="Dimensione" style="text;html=1;align=center;verticalAlign=middle;resizable=0;points=[];autosize=1;strokeColor=none;" parent="MW8t2zaK6TABfONugJJv-1" vertex="1">
          <mxGeometry x="355" y="560" width="80" height="20" as="geometry" />
        </mxCell>
        <mxCell id="Drw97kHliIowyQSXC1St-0" value="padre" style="text;html=1;align=center;verticalAlign=middle;resizable=0;points=[];autosize=1;strokeColor=none;" vertex="1" parent="MW8t2zaK6TABfONugJJv-1">
          <mxGeometry x="355" y="90" width="50" height="20" as="geometry" />
        </mxCell>
        <mxCell id="Drw97kHliIowyQSXC1St-1" value="figlio" style="text;html=1;align=center;verticalAlign=middle;resizable=0;points=[];autosize=1;strokeColor=none;" vertex="1" parent="MW8t2zaK6TABfONugJJv-1">
          <mxGeometry x="180" y="90" width="40" height="20" as="geometry" />
        </mxCell>
      </root>
    </mxGraphModel>
  </diagram>
  <diagram id="LeKom3H6rDElqf75Iix_" name="Condivisione">
    <mxGraphModel dx="677" dy="370" grid="1" gridSize="10" guides="1" tooltips="1" connect="1" arrows="1" fold="1" page="1" pageScale="1" pageWidth="850" pageHeight="1100" math="0" shadow="0">
      <root>
        <mxCell id="10eN5_OEHV0G8wEgwmsx-0" />
        <mxCell id="10eN5_OEHV0G8wEgwmsx-1" parent="10eN5_OEHV0G8wEgwmsx-0" />
        <mxCell id="Yu0VCeQFcHCSo1MzryAH-0" value="(0, N)" style="edgeStyle=orthogonalEdgeStyle;rounded=0;orthogonalLoop=1;jettySize=auto;html=1;exitX=0.5;exitY=1;exitDx=0;exitDy=0;entryX=0;entryY=0.5;entryDx=0;entryDy=0;endArrow=none;endFill=0;" parent="10eN5_OEHV0G8wEgwmsx-1" source="xYQUjyoiJGY1nVpQ_2fx-0" target="jjkWY--RieQS1U2-ntDP-3" edge="1">
          <mxGeometry x="0.111" relative="1" as="geometry">
            <mxPoint as="offset" />
          </mxGeometry>
        </mxCell>
        <mxCell id="xYQUjyoiJGY1nVpQ_2fx-0" value="File" style="whiteSpace=wrap;html=1;align=center;fillColor=#ffcc99;strokeColor=#36393d;" parent="10eN5_OEHV0G8wEgwmsx-1" vertex="1">
          <mxGeometry x="170" y="280" width="100" height="40" as="geometry" />
        </mxCell>
        <mxCell id="xYQUjyoiJGY1nVpQ_2fx-1" value="Utente" style="whiteSpace=wrap;html=1;align=center;fillColor=#ffcc99;strokeColor=#36393d;" parent="10eN5_OEHV0G8wEgwmsx-1" vertex="1">
          <mxGeometry x="480" y="280" width="100" height="40" as="geometry" />
        </mxCell>
        <mxCell id="U7iMTvjKr1q1x4VAZmqg-0" value="(0, 1)" style="edgeStyle=orthogonalEdgeStyle;rounded=0;orthogonalLoop=1;jettySize=auto;html=1;exitX=0.18;exitY=0.321;exitDx=0;exitDy=0;entryX=0.517;entryY=1.114;entryDx=0;entryDy=0;entryPerimeter=0;startArrow=none;startFill=0;endArrow=oval;endFill=0;exitPerimeter=0;" parent="10eN5_OEHV0G8wEgwmsx-1" source="lv6-S9PSDBgJtiGfX0UG-0" target="U7iMTvjKr1q1x4VAZmqg-4" edge="1">
          <mxGeometry relative="1" as="geometry">
            <mxPoint x="345" y="189.97" as="sourcePoint" />
          </mxGeometry>
        </mxCell>
        <mxCell id="U7iMTvjKr1q1x4VAZmqg-1" value="(0, 1)" style="edgeStyle=orthogonalEdgeStyle;rounded=0;orthogonalLoop=1;jettySize=auto;html=1;exitX=0.5;exitY=0;exitDx=0;exitDy=0;startArrow=none;startFill=0;endArrow=oval;endFill=0;" parent="10eN5_OEHV0G8wEgwmsx-1" target="U7iMTvjKr1q1x4VAZmqg-5" edge="1">
          <mxGeometry relative="1" as="geometry">
            <mxPoint x="370" y="189.97" as="sourcePoint" />
          </mxGeometry>
        </mxCell>
        <mxCell id="U7iMTvjKr1q1x4VAZmqg-4" value="Lettura" style="text;html=1;align=center;verticalAlign=middle;resizable=0;points=[];autosize=1;strokeColor=none;" parent="10eN5_OEHV0G8wEgwmsx-1" vertex="1">
          <mxGeometry x="310" y="150" width="50" height="20" as="geometry" />
        </mxCell>
        <mxCell id="U7iMTvjKr1q1x4VAZmqg-5" value="Scrittura" style="text;html=1;align=center;verticalAlign=middle;resizable=0;points=[];autosize=1;strokeColor=none;" parent="10eN5_OEHV0G8wEgwmsx-1" vertex="1">
          <mxGeometry x="340" y="119.97" width="60" height="20" as="geometry" />
        </mxCell>
        <mxCell id="jjkWY--RieQS1U2-ntDP-2" style="edgeStyle=orthogonalEdgeStyle;rounded=0;orthogonalLoop=1;jettySize=auto;html=1;exitX=1;exitY=0;exitDx=0;exitDy=0;entryX=0.525;entryY=1.05;entryDx=0;entryDy=0;entryPerimeter=0;endArrow=oval;endFill=0;" parent="10eN5_OEHV0G8wEgwmsx-1" source="lv6-S9PSDBgJtiGfX0UG-0" target="lv6-S9PSDBgJtiGfX0UG-7" edge="1">
          <mxGeometry relative="1" as="geometry">
            <Array as="points">
              <mxPoint x="428" y="205" />
            </Array>
          </mxGeometry>
        </mxCell>
        <mxCell id="jjkWY--RieQS1U2-ntDP-6" value="(0, N)" style="edgeStyle=orthogonalEdgeStyle;rounded=0;orthogonalLoop=1;jettySize=auto;html=1;exitX=1;exitY=0.5;exitDx=0;exitDy=0;entryX=0.5;entryY=0;entryDx=0;entryDy=0;endArrow=none;endFill=0;" parent="10eN5_OEHV0G8wEgwmsx-1" source="lv6-S9PSDBgJtiGfX0UG-0" target="xYQUjyoiJGY1nVpQ_2fx-1" edge="1">
          <mxGeometry x="-0.0476" relative="1" as="geometry">
            <mxPoint as="offset" />
          </mxGeometry>
        </mxCell>
        <mxCell id="jjkWY--RieQS1U2-ntDP-7" value="(0, N)" style="edgeStyle=orthogonalEdgeStyle;rounded=0;orthogonalLoop=1;jettySize=auto;html=1;exitX=0;exitY=0.5;exitDx=0;exitDy=0;entryX=0.5;entryY=0;entryDx=0;entryDy=0;endArrow=none;endFill=0;" parent="10eN5_OEHV0G8wEgwmsx-1" source="lv6-S9PSDBgJtiGfX0UG-0" target="xYQUjyoiJGY1nVpQ_2fx-0" edge="1">
          <mxGeometry x="-0.0997" relative="1" as="geometry">
            <mxPoint as="offset" />
          </mxGeometry>
        </mxCell>
        <mxCell id="lv6-S9PSDBgJtiGfX0UG-0" value="Condivisione" style="shape=rhombus;perimeter=rhombusPerimeter;whiteSpace=wrap;html=1;align=center;fillColor=#cdeb8b;strokeColor=#36393d;" parent="10eN5_OEHV0G8wEgwmsx-1" vertex="1">
          <mxGeometry x="320" y="190" width="100" height="60" as="geometry" />
        </mxCell>
        <mxCell id="lv6-S9PSDBgJtiGfX0UG-7" value="DataCondivisione" style="text;html=1;align=center;verticalAlign=middle;resizable=0;points=[];autosize=1;strokeColor=none;" parent="10eN5_OEHV0G8wEgwmsx-1" vertex="1">
          <mxGeometry x="370" y="170" width="110" height="20" as="geometry" />
        </mxCell>
        <mxCell id="jjkWY--RieQS1U2-ntDP-5" value="(0, N)" style="edgeStyle=orthogonalEdgeStyle;rounded=0;orthogonalLoop=1;jettySize=auto;html=1;exitX=1;exitY=0.5;exitDx=0;exitDy=0;entryX=0.5;entryY=1;entryDx=0;entryDy=0;endArrow=none;endFill=0;" parent="10eN5_OEHV0G8wEgwmsx-1" source="jjkWY--RieQS1U2-ntDP-3" target="xYQUjyoiJGY1nVpQ_2fx-1" edge="1">
          <mxGeometry x="-0.0528" relative="1" as="geometry">
            <mxPoint as="offset" />
          </mxGeometry>
        </mxCell>
        <mxCell id="jjkWY--RieQS1U2-ntDP-9" style="edgeStyle=orthogonalEdgeStyle;rounded=0;orthogonalLoop=1;jettySize=auto;html=1;exitX=1;exitY=1;exitDx=0;exitDy=0;entryX=0.489;entryY=-0.107;entryDx=0;entryDy=0;entryPerimeter=0;endArrow=oval;endFill=0;" parent="10eN5_OEHV0G8wEgwmsx-1" source="jjkWY--RieQS1U2-ntDP-3" target="jjkWY--RieQS1U2-ntDP-8" edge="1">
          <mxGeometry relative="1" as="geometry" />
        </mxCell>
        <mxCell id="jjkWY--RieQS1U2-ntDP-3" value="Preferenza" style="shape=rhombus;perimeter=rhombusPerimeter;whiteSpace=wrap;html=1;align=center;fillColor=#cdeb8b;strokeColor=#36393d;" parent="10eN5_OEHV0G8wEgwmsx-1" vertex="1">
          <mxGeometry x="330" y="360" width="80" height="60" as="geometry" />
        </mxCell>
        <mxCell id="jjkWY--RieQS1U2-ntDP-8" value="DataPreferenza" style="text;html=1;align=center;verticalAlign=middle;resizable=0;points=[];autosize=1;strokeColor=none;" parent="10eN5_OEHV0G8wEgwmsx-1" vertex="1">
          <mxGeometry x="350" y="420" width="100" height="20" as="geometry" />
        </mxCell>
      </root>
    </mxGraphModel>
  </diagram>
  <diagram id="1C5qZbzZ78bCAqq7HfMl" name="Segnalazioni">
    <mxGraphModel dx="813" dy="445" grid="1" gridSize="10" guides="1" tooltips="1" connect="1" arrows="1" fold="1" page="1" pageScale="1" pageWidth="850" pageHeight="1100" math="0" shadow="0">
      <root>
        <mxCell id="D8thpvb7b3GO5ppOwut3-0" />
        <mxCell id="D8thpvb7b3GO5ppOwut3-1" parent="D8thpvb7b3GO5ppOwut3-0" />
        <mxCell id="0igE6r6jF7mBlkThi-DH-3" style="edgeStyle=orthogonalEdgeStyle;rounded=0;orthogonalLoop=1;jettySize=auto;html=1;exitX=1;exitY=0.25;exitDx=0;exitDy=0;entryX=-0.083;entryY=0.483;entryDx=0;entryDy=0;entryPerimeter=0;endArrow=oval;endFill=1;" parent="D8thpvb7b3GO5ppOwut3-1" source="-_uWnYvo5OoX5Ok3vsTU-1" target="0igE6r6jF7mBlkThi-DH-0" edge="1">
          <mxGeometry relative="1" as="geometry">
            <Array as="points">
              <mxPoint x="490" y="300" />
            </Array>
          </mxGeometry>
        </mxCell>
        <mxCell id="0igE6r6jF7mBlkThi-DH-4" style="edgeStyle=orthogonalEdgeStyle;rounded=0;orthogonalLoop=1;jettySize=auto;html=1;exitX=1;exitY=0.5;exitDx=0;exitDy=0;entryX=-0.014;entryY=0.5;entryDx=0;entryDy=0;entryPerimeter=0;endArrow=oval;endFill=0;" parent="D8thpvb7b3GO5ppOwut3-1" source="-_uWnYvo5OoX5Ok3vsTU-1" target="0igE6r6jF7mBlkThi-DH-2" edge="1">
          <mxGeometry relative="1" as="geometry" />
        </mxCell>
        <mxCell id="-_uWnYvo5OoX5Ok3vsTU-1" value="Segnalazione" style="whiteSpace=wrap;html=1;align=center;fillColor=#ffcc99;strokeColor=#36393d;" parent="D8thpvb7b3GO5ppOwut3-1" vertex="1">
          <mxGeometry x="390" y="290" width="100" height="50" as="geometry" />
        </mxCell>
        <mxCell id="0igE6r6jF7mBlkThi-DH-0" value="Id" style="text;html=1;align=center;verticalAlign=middle;resizable=0;points=[];autosize=1;strokeColor=none;" parent="D8thpvb7b3GO5ppOwut3-1" vertex="1">
          <mxGeometry x="510" y="290" width="30" height="20" as="geometry" />
        </mxCell>
        <mxCell id="0igE6r6jF7mBlkThi-DH-1" value="DataApertura" style="text;html=1;align=center;verticalAlign=middle;resizable=0;points=[];autosize=1;strokeColor=none;" parent="D8thpvb7b3GO5ppOwut3-1" vertex="1">
          <mxGeometry x="445" y="360" width="90" height="20" as="geometry" />
        </mxCell>
        <mxCell id="0igE6r6jF7mBlkThi-DH-2" value="Problema" style="text;html=1;align=center;verticalAlign=middle;resizable=0;points=[];autosize=1;strokeColor=none;" parent="D8thpvb7b3GO5ppOwut3-1" vertex="1">
          <mxGeometry x="510" y="305" width="70" height="20" as="geometry" />
        </mxCell>
        <mxCell id="0igE6r6jF7mBlkThi-DH-8" style="edgeStyle=orthogonalEdgeStyle;rounded=0;orthogonalLoop=1;jettySize=auto;html=1;exitX=1;exitY=0.25;exitDx=0;exitDy=0;entryX=-0.016;entryY=0.564;entryDx=0;entryDy=0;entryPerimeter=0;endArrow=oval;endFill=1;" parent="D8thpvb7b3GO5ppOwut3-1" source="0igE6r6jF7mBlkThi-DH-6" target="0igE6r6jF7mBlkThi-DH-7" edge="1">
          <mxGeometry relative="1" as="geometry">
            <Array as="points">
              <mxPoint x="515" y="81" />
              <mxPoint x="520" y="81" />
            </Array>
          </mxGeometry>
        </mxCell>
        <mxCell id="0igE6r6jF7mBlkThi-DH-11" style="edgeStyle=orthogonalEdgeStyle;rounded=0;orthogonalLoop=1;jettySize=auto;html=1;exitX=1;exitY=0.5;exitDx=0;exitDy=0;entryX=-0.016;entryY=0.517;entryDx=0;entryDy=0;entryPerimeter=0;endArrow=oval;endFill=0;" parent="D8thpvb7b3GO5ppOwut3-1" source="0igE6r6jF7mBlkThi-DH-6" target="0igE6r6jF7mBlkThi-DH-9" edge="1">
          <mxGeometry relative="1" as="geometry">
            <Array as="points">
              <mxPoint x="515" y="90" />
              <mxPoint x="520" y="90" />
            </Array>
          </mxGeometry>
        </mxCell>
        <mxCell id="0igE6r6jF7mBlkThi-DH-12" style="edgeStyle=orthogonalEdgeStyle;rounded=0;orthogonalLoop=1;jettySize=auto;html=1;exitX=1;exitY=0.5;exitDx=0;exitDy=0;entryX=-0.012;entryY=0.54;entryDx=0;entryDy=0;entryPerimeter=0;endArrow=oval;endFill=0;" parent="D8thpvb7b3GO5ppOwut3-1" source="0igE6r6jF7mBlkThi-DH-6" target="0igE6r6jF7mBlkThi-DH-10" edge="1">
          <mxGeometry relative="1" as="geometry">
            <Array as="points">
              <mxPoint x="515" y="101" />
              <mxPoint x="520" y="101" />
            </Array>
          </mxGeometry>
        </mxCell>
        <mxCell id="R7nQdtE8GITYbIynW-W2-1" style="edgeStyle=orthogonalEdgeStyle;rounded=0;orthogonalLoop=1;jettySize=auto;html=1;exitX=1;exitY=0.75;exitDx=0;exitDy=0;entryX=-0.004;entryY=0.564;entryDx=0;entryDy=0;entryPerimeter=0;endArrow=oval;endFill=0;" parent="D8thpvb7b3GO5ppOwut3-1" source="0igE6r6jF7mBlkThi-DH-6" target="R7nQdtE8GITYbIynW-W2-0" edge="1">
          <mxGeometry relative="1" as="geometry">
            <Array as="points">
              <mxPoint x="515" y="116" />
            </Array>
          </mxGeometry>
        </mxCell>
        <mxCell id="0igE6r6jF7mBlkThi-DH-6" value="Operatore" style="whiteSpace=wrap;html=1;align=center;fillColor=#ffcc99;strokeColor=#36393d;" parent="D8thpvb7b3GO5ppOwut3-1" vertex="1">
          <mxGeometry x="365" y="70" width="150" height="55" as="geometry" />
        </mxCell>
        <mxCell id="0igE6r6jF7mBlkThi-DH-7" value="Codice" style="text;html=1;align=center;verticalAlign=middle;resizable=0;points=[];autosize=1;strokeColor=none;" parent="D8thpvb7b3GO5ppOwut3-1" vertex="1">
          <mxGeometry x="540" y="70" width="50" height="20" as="geometry" />
        </mxCell>
        <mxCell id="0igE6r6jF7mBlkThi-DH-9" value="Nome" style="text;html=1;align=center;verticalAlign=middle;resizable=0;points=[];autosize=1;strokeColor=none;" parent="D8thpvb7b3GO5ppOwut3-1" vertex="1">
          <mxGeometry x="540" y="80" width="50" height="20" as="geometry" />
        </mxCell>
        <mxCell id="0igE6r6jF7mBlkThi-DH-10" value="Password" style="text;html=1;align=center;verticalAlign=middle;resizable=0;points=[];autosize=1;strokeColor=none;" parent="D8thpvb7b3GO5ppOwut3-1" vertex="1">
          <mxGeometry x="540" y="90" width="70" height="20" as="geometry" />
        </mxCell>
        <mxCell id="R7nQdtE8GITYbIynW-W2-0" value="DataNascita" style="text;html=1;align=center;verticalAlign=middle;resizable=0;points=[];autosize=1;strokeColor=none;" parent="D8thpvb7b3GO5ppOwut3-1" vertex="1">
          <mxGeometry x="540" y="105" width="80" height="20" as="geometry" />
        </mxCell>
        <mxCell id="R7nQdtE8GITYbIynW-W2-3" style="edgeStyle=orthogonalEdgeStyle;rounded=0;orthogonalLoop=1;jettySize=auto;html=1;exitX=0.5;exitY=0;exitDx=0;exitDy=0;entryX=0.25;entryY=1;entryDx=0;entryDy=0;endArrow=none;endFill=0;" parent="D8thpvb7b3GO5ppOwut3-1" source="R7nQdtE8GITYbIynW-W2-2" target="0igE6r6jF7mBlkThi-DH-6" edge="1">
          <mxGeometry relative="1" as="geometry" />
        </mxCell>
        <mxCell id="R7nQdtE8GITYbIynW-W2-19" value="(0, N)" style="edgeLabel;html=1;align=center;verticalAlign=middle;resizable=0;points=[];" parent="R7nQdtE8GITYbIynW-W2-3" vertex="1" connectable="0">
          <mxGeometry x="0.1376" y="1" relative="1" as="geometry">
            <mxPoint x="-2" as="offset" />
          </mxGeometry>
        </mxCell>
        <mxCell id="R7nQdtE8GITYbIynW-W2-8" value="(1, 1)" style="edgeStyle=orthogonalEdgeStyle;rounded=0;orthogonalLoop=1;jettySize=auto;html=1;exitX=0.5;exitY=1;exitDx=0;exitDy=0;entryX=0.268;entryY=-0.06;entryDx=0;entryDy=0;entryPerimeter=0;endArrow=none;endFill=0;" parent="D8thpvb7b3GO5ppOwut3-1" source="R7nQdtE8GITYbIynW-W2-2" target="-_uWnYvo5OoX5Ok3vsTU-1" edge="1">
          <mxGeometry relative="1" as="geometry" />
        </mxCell>
        <mxCell id="R7nQdtE8GITYbIynW-W2-11" style="edgeStyle=orthogonalEdgeStyle;rounded=0;orthogonalLoop=1;jettySize=auto;html=1;exitX=0;exitY=0;exitDx=0;exitDy=0;entryX=0.475;entryY=1.017;entryDx=0;entryDy=0;entryPerimeter=0;endArrow=oval;endFill=0;" parent="D8thpvb7b3GO5ppOwut3-1" source="R7nQdtE8GITYbIynW-W2-2" target="R7nQdtE8GITYbIynW-W2-10" edge="1">
          <mxGeometry relative="1" as="geometry">
            <Array as="points">
              <mxPoint x="307" y="185" />
            </Array>
          </mxGeometry>
        </mxCell>
        <mxCell id="R7nQdtE8GITYbIynW-W2-2" value="Accettazione" style="shape=rhombus;perimeter=rhombusPerimeter;whiteSpace=wrap;html=1;align=center;fillColor=#cdeb8b;strokeColor=#36393d;" parent="D8thpvb7b3GO5ppOwut3-1" vertex="1">
          <mxGeometry x="320" y="170" width="100" height="60" as="geometry" />
        </mxCell>
        <mxCell id="R7nQdtE8GITYbIynW-W2-6" value="(1, 1)" style="edgeStyle=orthogonalEdgeStyle;rounded=0;orthogonalLoop=1;jettySize=auto;html=1;exitX=0.5;exitY=1;exitDx=0;exitDy=0;entryX=0.75;entryY=0;entryDx=0;entryDy=0;endArrow=none;endFill=0;" parent="D8thpvb7b3GO5ppOwut3-1" source="R7nQdtE8GITYbIynW-W2-5" target="-_uWnYvo5OoX5Ok3vsTU-1" edge="1">
          <mxGeometry relative="1" as="geometry" />
        </mxCell>
        <mxCell id="R7nQdtE8GITYbIynW-W2-7" value="(0, N)" style="edgeStyle=orthogonalEdgeStyle;rounded=0;orthogonalLoop=1;jettySize=auto;html=1;exitX=0.5;exitY=0;exitDx=0;exitDy=0;entryX=0.75;entryY=1;entryDx=0;entryDy=0;endArrow=none;endFill=0;" parent="D8thpvb7b3GO5ppOwut3-1" source="R7nQdtE8GITYbIynW-W2-5" target="0igE6r6jF7mBlkThi-DH-6" edge="1">
          <mxGeometry relative="1" as="geometry" />
        </mxCell>
        <mxCell id="R7nQdtE8GITYbIynW-W2-13" style="edgeStyle=orthogonalEdgeStyle;rounded=0;orthogonalLoop=1;jettySize=auto;html=1;exitX=1;exitY=0;exitDx=0;exitDy=0;entryX=0.508;entryY=1.1;entryDx=0;entryDy=0;entryPerimeter=0;endArrow=oval;endFill=0;" parent="D8thpvb7b3GO5ppOwut3-1" source="R7nQdtE8GITYbIynW-W2-5" target="R7nQdtE8GITYbIynW-W2-12" edge="1">
          <mxGeometry relative="1" as="geometry" />
        </mxCell>
        <mxCell id="R7nQdtE8GITYbIynW-W2-5" value="Chiusura" style="shape=rhombus;perimeter=rhombusPerimeter;whiteSpace=wrap;html=1;align=center;fillColor=#cdeb8b;strokeColor=#36393d;" parent="D8thpvb7b3GO5ppOwut3-1" vertex="1">
          <mxGeometry x="460" y="170" width="100" height="60" as="geometry" />
        </mxCell>
        <mxCell id="R7nQdtE8GITYbIynW-W2-10" value="DataAccettazione" style="text;html=1;align=center;verticalAlign=middle;resizable=0;points=[];autosize=1;strokeColor=none;" parent="D8thpvb7b3GO5ppOwut3-1" vertex="1">
          <mxGeometry x="255" y="145" width="110" height="20" as="geometry" />
        </mxCell>
        <mxCell id="R7nQdtE8GITYbIynW-W2-12" value="DataChiusura" style="text;html=1;align=center;verticalAlign=middle;resizable=0;points=[];autosize=1;strokeColor=none;" parent="D8thpvb7b3GO5ppOwut3-1" vertex="1">
          <mxGeometry x="510" y="145" width="90" height="20" as="geometry" />
        </mxCell>
        <mxCell id="R7nQdtE8GITYbIynW-W2-15" value="Utente" style="whiteSpace=wrap;html=1;align=center;fillColor=#ffcc99;strokeColor=#36393d;" parent="D8thpvb7b3GO5ppOwut3-1" vertex="1">
          <mxGeometry x="365" y="480" width="150" height="55" as="geometry" />
        </mxCell>
        <mxCell id="R7nQdtE8GITYbIynW-W2-17" value="(1, 1)" style="edgeStyle=orthogonalEdgeStyle;rounded=0;orthogonalLoop=1;jettySize=auto;html=1;exitX=0.5;exitY=0;exitDx=0;exitDy=0;entryX=0.5;entryY=1;entryDx=0;entryDy=0;endArrow=none;endFill=0;" parent="D8thpvb7b3GO5ppOwut3-1" source="R7nQdtE8GITYbIynW-W2-16" target="-_uWnYvo5OoX5Ok3vsTU-1" edge="1">
          <mxGeometry relative="1" as="geometry" />
        </mxCell>
        <mxCell id="R7nQdtE8GITYbIynW-W2-18" value="(0, N)" style="edgeStyle=orthogonalEdgeStyle;rounded=0;orthogonalLoop=1;jettySize=auto;html=1;exitX=0.5;exitY=1;exitDx=0;exitDy=0;entryX=0.5;entryY=0;entryDx=0;entryDy=0;endArrow=none;endFill=0;" parent="D8thpvb7b3GO5ppOwut3-1" source="R7nQdtE8GITYbIynW-W2-16" target="R7nQdtE8GITYbIynW-W2-15" edge="1">
          <mxGeometry relative="1" as="geometry" />
        </mxCell>
        <mxCell id="R7nQdtE8GITYbIynW-W2-21" style="edgeStyle=orthogonalEdgeStyle;rounded=0;orthogonalLoop=1;jettySize=auto;html=1;exitX=1;exitY=0;exitDx=0;exitDy=0;entryX=0.509;entryY=1.022;entryDx=0;entryDy=0;entryPerimeter=0;fontSize=8;endArrow=oval;endFill=0;" parent="D8thpvb7b3GO5ppOwut3-1" source="R7nQdtE8GITYbIynW-W2-16" target="0igE6r6jF7mBlkThi-DH-1" edge="1">
          <mxGeometry relative="1" as="geometry">
            <Array as="points">
              <mxPoint x="491" y="395" />
            </Array>
          </mxGeometry>
        </mxCell>
        <mxCell id="R7nQdtE8GITYbIynW-W2-16" value="Apertura" style="shape=rhombus;perimeter=rhombusPerimeter;whiteSpace=wrap;html=1;align=center;fillColor=#cdeb8b;strokeColor=#36393d;" parent="D8thpvb7b3GO5ppOwut3-1" vertex="1">
          <mxGeometry x="390" y="380" width="100" height="60" as="geometry" />
        </mxCell>
        <mxCell id="R7nQdtE8GITYbIynW-W2-20" value="L&#39;operatore che accetta la segnalazione sarà anche quello che la chiude" style="shape=note;size=20;whiteSpace=wrap;html=1;fontSize=8;" parent="D8thpvb7b3GO5ppOwut3-1" vertex="1">
          <mxGeometry x="580" y="165" width="70" height="95" as="geometry" />
        </mxCell>
      </root>
    </mxGraphModel>
  </diagram>
  <diagram id="lukHU8p22FdLkG4jFCda" name="Segnalazioni-Reificato">
    <mxGraphModel dx="677" dy="370" grid="1" gridSize="10" guides="1" tooltips="1" connect="1" arrows="1" fold="1" page="1" pageScale="1" pageWidth="850" pageHeight="1100" math="0" shadow="0">
      <root>
        <mxCell id="4KFNFi_MbAPsiKgZXLoy-0" />
        <mxCell id="4KFNFi_MbAPsiKgZXLoy-1" parent="4KFNFi_MbAPsiKgZXLoy-0" />
        <mxCell id="L2eKXfHmUDSy7ZHA1HFd-0" style="edgeStyle=orthogonalEdgeStyle;rounded=0;orthogonalLoop=1;jettySize=auto;html=1;exitX=1;exitY=0.25;exitDx=0;exitDy=0;entryX=-0.083;entryY=0.483;entryDx=0;entryDy=0;entryPerimeter=0;endArrow=oval;endFill=1;" parent="4KFNFi_MbAPsiKgZXLoy-1" source="L2eKXfHmUDSy7ZHA1HFd-2" target="L2eKXfHmUDSy7ZHA1HFd-3" edge="1">
          <mxGeometry relative="1" as="geometry">
            <Array as="points">
              <mxPoint x="490" y="300" />
            </Array>
          </mxGeometry>
        </mxCell>
        <mxCell id="L2eKXfHmUDSy7ZHA1HFd-1" style="edgeStyle=orthogonalEdgeStyle;rounded=0;orthogonalLoop=1;jettySize=auto;html=1;exitX=1;exitY=0.5;exitDx=0;exitDy=0;entryX=-0.014;entryY=0.5;entryDx=0;entryDy=0;entryPerimeter=0;endArrow=oval;endFill=0;" parent="4KFNFi_MbAPsiKgZXLoy-1" source="L2eKXfHmUDSy7ZHA1HFd-2" target="L2eKXfHmUDSy7ZHA1HFd-5" edge="1">
          <mxGeometry relative="1" as="geometry" />
        </mxCell>
        <mxCell id="L2eKXfHmUDSy7ZHA1HFd-2" value="Segnalazione" style="whiteSpace=wrap;html=1;align=center;fillColor=#ffcc99;strokeColor=#36393d;" parent="4KFNFi_MbAPsiKgZXLoy-1" vertex="1">
          <mxGeometry x="390" y="290" width="100" height="50" as="geometry" />
        </mxCell>
        <mxCell id="L2eKXfHmUDSy7ZHA1HFd-3" value="Id" style="text;html=1;align=center;verticalAlign=middle;resizable=0;points=[];autosize=1;strokeColor=none;" parent="4KFNFi_MbAPsiKgZXLoy-1" vertex="1">
          <mxGeometry x="510" y="290" width="30" height="20" as="geometry" />
        </mxCell>
        <mxCell id="L2eKXfHmUDSy7ZHA1HFd-4" value="DataApertura" style="text;html=1;align=center;verticalAlign=middle;resizable=0;points=[];autosize=1;strokeColor=none;" parent="4KFNFi_MbAPsiKgZXLoy-1" vertex="1">
          <mxGeometry x="445" y="360" width="90" height="20" as="geometry" />
        </mxCell>
        <mxCell id="L2eKXfHmUDSy7ZHA1HFd-5" value="Problema" style="text;html=1;align=center;verticalAlign=middle;resizable=0;points=[];autosize=1;strokeColor=none;" parent="4KFNFi_MbAPsiKgZXLoy-1" vertex="1">
          <mxGeometry x="510" y="305" width="70" height="20" as="geometry" />
        </mxCell>
        <mxCell id="L2eKXfHmUDSy7ZHA1HFd-6" style="edgeStyle=orthogonalEdgeStyle;rounded=0;orthogonalLoop=1;jettySize=auto;html=1;exitX=1;exitY=0.25;exitDx=0;exitDy=0;entryX=-0.016;entryY=0.564;entryDx=0;entryDy=0;entryPerimeter=0;endArrow=oval;endFill=1;" parent="4KFNFi_MbAPsiKgZXLoy-1" source="L2eKXfHmUDSy7ZHA1HFd-10" target="L2eKXfHmUDSy7ZHA1HFd-11" edge="1">
          <mxGeometry relative="1" as="geometry">
            <Array as="points">
              <mxPoint x="515" y="81" />
              <mxPoint x="520" y="81" />
            </Array>
          </mxGeometry>
        </mxCell>
        <mxCell id="L2eKXfHmUDSy7ZHA1HFd-7" style="edgeStyle=orthogonalEdgeStyle;rounded=0;orthogonalLoop=1;jettySize=auto;html=1;exitX=1;exitY=0.5;exitDx=0;exitDy=0;entryX=-0.016;entryY=0.517;entryDx=0;entryDy=0;entryPerimeter=0;endArrow=oval;endFill=0;" parent="4KFNFi_MbAPsiKgZXLoy-1" source="L2eKXfHmUDSy7ZHA1HFd-10" target="L2eKXfHmUDSy7ZHA1HFd-12" edge="1">
          <mxGeometry relative="1" as="geometry">
            <Array as="points">
              <mxPoint x="515" y="90" />
              <mxPoint x="520" y="90" />
            </Array>
          </mxGeometry>
        </mxCell>
        <mxCell id="L2eKXfHmUDSy7ZHA1HFd-8" style="edgeStyle=orthogonalEdgeStyle;rounded=0;orthogonalLoop=1;jettySize=auto;html=1;exitX=1;exitY=0.5;exitDx=0;exitDy=0;entryX=-0.012;entryY=0.54;entryDx=0;entryDy=0;entryPerimeter=0;endArrow=oval;endFill=0;" parent="4KFNFi_MbAPsiKgZXLoy-1" source="L2eKXfHmUDSy7ZHA1HFd-10" target="L2eKXfHmUDSy7ZHA1HFd-13" edge="1">
          <mxGeometry relative="1" as="geometry">
            <Array as="points">
              <mxPoint x="515" y="101" />
              <mxPoint x="520" y="101" />
            </Array>
          </mxGeometry>
        </mxCell>
        <mxCell id="L2eKXfHmUDSy7ZHA1HFd-9" style="edgeStyle=orthogonalEdgeStyle;rounded=0;orthogonalLoop=1;jettySize=auto;html=1;exitX=1;exitY=0.75;exitDx=0;exitDy=0;entryX=-0.004;entryY=0.564;entryDx=0;entryDy=0;entryPerimeter=0;endArrow=oval;endFill=0;" parent="4KFNFi_MbAPsiKgZXLoy-1" source="L2eKXfHmUDSy7ZHA1HFd-10" target="L2eKXfHmUDSy7ZHA1HFd-14" edge="1">
          <mxGeometry relative="1" as="geometry">
            <Array as="points">
              <mxPoint x="515" y="116" />
            </Array>
          </mxGeometry>
        </mxCell>
        <mxCell id="L2eKXfHmUDSy7ZHA1HFd-10" value="Operatore" style="whiteSpace=wrap;html=1;align=center;fillColor=#ffcc99;strokeColor=#36393d;" parent="4KFNFi_MbAPsiKgZXLoy-1" vertex="1">
          <mxGeometry x="365" y="70" width="150" height="55" as="geometry" />
        </mxCell>
        <mxCell id="L2eKXfHmUDSy7ZHA1HFd-11" value="Codice" style="text;html=1;align=center;verticalAlign=middle;resizable=0;points=[];autosize=1;strokeColor=none;" parent="4KFNFi_MbAPsiKgZXLoy-1" vertex="1">
          <mxGeometry x="540" y="70" width="50" height="20" as="geometry" />
        </mxCell>
        <mxCell id="L2eKXfHmUDSy7ZHA1HFd-12" value="Nome" style="text;html=1;align=center;verticalAlign=middle;resizable=0;points=[];autosize=1;strokeColor=none;" parent="4KFNFi_MbAPsiKgZXLoy-1" vertex="1">
          <mxGeometry x="540" y="80" width="50" height="20" as="geometry" />
        </mxCell>
        <mxCell id="L2eKXfHmUDSy7ZHA1HFd-13" value="Password" style="text;html=1;align=center;verticalAlign=middle;resizable=0;points=[];autosize=1;strokeColor=none;" parent="4KFNFi_MbAPsiKgZXLoy-1" vertex="1">
          <mxGeometry x="540" y="90" width="70" height="20" as="geometry" />
        </mxCell>
        <mxCell id="L2eKXfHmUDSy7ZHA1HFd-14" value="DataNascita" style="text;html=1;align=center;verticalAlign=middle;resizable=0;points=[];autosize=1;strokeColor=none;" parent="4KFNFi_MbAPsiKgZXLoy-1" vertex="1">
          <mxGeometry x="540" y="105" width="80" height="20" as="geometry" />
        </mxCell>
        <mxCell id="L2eKXfHmUDSy7ZHA1HFd-15" style="edgeStyle=orthogonalEdgeStyle;rounded=0;orthogonalLoop=1;jettySize=auto;html=1;exitX=0.5;exitY=0;exitDx=0;exitDy=0;entryX=0.5;entryY=1;entryDx=0;entryDy=0;endArrow=none;endFill=0;" parent="4KFNFi_MbAPsiKgZXLoy-1" source="L2eKXfHmUDSy7ZHA1HFd-19" target="L2eKXfHmUDSy7ZHA1HFd-10" edge="1">
          <mxGeometry relative="1" as="geometry" />
        </mxCell>
        <mxCell id="L2eKXfHmUDSy7ZHA1HFd-16" value="(0, N)" style="edgeLabel;html=1;align=center;verticalAlign=middle;resizable=0;points=[];" parent="L2eKXfHmUDSy7ZHA1HFd-15" vertex="1" connectable="0">
          <mxGeometry x="0.1376" y="1" relative="1" as="geometry">
            <mxPoint x="-2" as="offset" />
          </mxGeometry>
        </mxCell>
        <mxCell id="L2eKXfHmUDSy7ZHA1HFd-17" value="(0, 1)" style="edgeStyle=orthogonalEdgeStyle;rounded=0;orthogonalLoop=1;jettySize=auto;html=1;exitX=0.5;exitY=1;exitDx=0;exitDy=0;entryX=0.5;entryY=0;entryDx=0;entryDy=0;endArrow=none;endFill=0;" parent="4KFNFi_MbAPsiKgZXLoy-1" source="L2eKXfHmUDSy7ZHA1HFd-19" target="L2eKXfHmUDSy7ZHA1HFd-2" edge="1">
          <mxGeometry relative="1" as="geometry" />
        </mxCell>
        <mxCell id="L2eKXfHmUDSy7ZHA1HFd-18" style="edgeStyle=orthogonalEdgeStyle;rounded=0;orthogonalLoop=1;jettySize=auto;html=1;exitX=0;exitY=0;exitDx=0;exitDy=0;entryX=0.475;entryY=1.017;entryDx=0;entryDy=0;entryPerimeter=0;endArrow=oval;endFill=0;" parent="4KFNFi_MbAPsiKgZXLoy-1" source="L2eKXfHmUDSy7ZHA1HFd-19" target="L2eKXfHmUDSy7ZHA1HFd-24" edge="1">
          <mxGeometry relative="1" as="geometry">
            <Array as="points">
              <mxPoint x="367" y="185" />
              <mxPoint x="367" y="170" />
            </Array>
          </mxGeometry>
        </mxCell>
        <mxCell id="L2eKXfHmUDSy7ZHA1HFd-19" value="Incaricamento" style="shape=rhombus;perimeter=rhombusPerimeter;whiteSpace=wrap;html=1;align=center;fillColor=#cdeb8b;strokeColor=#36393d;" parent="4KFNFi_MbAPsiKgZXLoy-1" vertex="1">
          <mxGeometry x="390" y="170" width="100" height="60" as="geometry" />
        </mxCell>
        <mxCell id="L2eKXfHmUDSy7ZHA1HFd-24" value="DataAccettazione" style="text;html=1;align=center;verticalAlign=middle;resizable=0;points=[];autosize=1;strokeColor=none;" parent="4KFNFi_MbAPsiKgZXLoy-1" vertex="1">
          <mxGeometry x="315" y="150" width="110" height="20" as="geometry" />
        </mxCell>
        <mxCell id="L2eKXfHmUDSy7ZHA1HFd-26" value="Utente" style="whiteSpace=wrap;html=1;align=center;fillColor=#ffcc99;strokeColor=#36393d;" parent="4KFNFi_MbAPsiKgZXLoy-1" vertex="1">
          <mxGeometry x="365" y="480" width="150" height="55" as="geometry" />
        </mxCell>
        <mxCell id="L2eKXfHmUDSy7ZHA1HFd-27" value="(1, 1)" style="edgeStyle=orthogonalEdgeStyle;rounded=0;orthogonalLoop=1;jettySize=auto;html=1;exitX=0.5;exitY=0;exitDx=0;exitDy=0;entryX=0.5;entryY=1;entryDx=0;entryDy=0;endArrow=none;endFill=0;" parent="4KFNFi_MbAPsiKgZXLoy-1" source="L2eKXfHmUDSy7ZHA1HFd-30" target="L2eKXfHmUDSy7ZHA1HFd-2" edge="1">
          <mxGeometry relative="1" as="geometry" />
        </mxCell>
        <mxCell id="L2eKXfHmUDSy7ZHA1HFd-28" value="(0, N)" style="edgeStyle=orthogonalEdgeStyle;rounded=0;orthogonalLoop=1;jettySize=auto;html=1;exitX=0.5;exitY=1;exitDx=0;exitDy=0;entryX=0.5;entryY=0;entryDx=0;entryDy=0;endArrow=none;endFill=0;" parent="4KFNFi_MbAPsiKgZXLoy-1" source="L2eKXfHmUDSy7ZHA1HFd-30" target="L2eKXfHmUDSy7ZHA1HFd-26" edge="1">
          <mxGeometry relative="1" as="geometry" />
        </mxCell>
        <mxCell id="L2eKXfHmUDSy7ZHA1HFd-29" style="edgeStyle=orthogonalEdgeStyle;rounded=0;orthogonalLoop=1;jettySize=auto;html=1;exitX=1;exitY=0;exitDx=0;exitDy=0;entryX=0.509;entryY=1.022;entryDx=0;entryDy=0;entryPerimeter=0;fontSize=8;endArrow=oval;endFill=0;" parent="4KFNFi_MbAPsiKgZXLoy-1" source="L2eKXfHmUDSy7ZHA1HFd-30" target="L2eKXfHmUDSy7ZHA1HFd-4" edge="1">
          <mxGeometry relative="1" as="geometry">
            <Array as="points">
              <mxPoint x="491" y="395" />
            </Array>
          </mxGeometry>
        </mxCell>
        <mxCell id="L2eKXfHmUDSy7ZHA1HFd-30" value="Apertura" style="shape=rhombus;perimeter=rhombusPerimeter;whiteSpace=wrap;html=1;align=center;fillColor=#cdeb8b;strokeColor=#36393d;" parent="4KFNFi_MbAPsiKgZXLoy-1" vertex="1">
          <mxGeometry x="390" y="380" width="100" height="60" as="geometry" />
        </mxCell>
        <mxCell id="L2eKXfHmUDSy7ZHA1HFd-32" value="DataChiusura" style="text;html=1;align=center;verticalAlign=middle;resizable=0;points=[];autosize=1;strokeColor=none;" parent="4KFNFi_MbAPsiKgZXLoy-1" vertex="1">
          <mxGeometry x="470" y="150" width="90" height="20" as="geometry" />
        </mxCell>
        <mxCell id="L2eKXfHmUDSy7ZHA1HFd-34" value="(0, 1)" style="edgeStyle=orthogonalEdgeStyle;rounded=0;orthogonalLoop=1;jettySize=auto;html=1;exitX=1;exitY=0;exitDx=0;exitDy=0;entryX=0.528;entryY=1.025;entryDx=0;entryDy=0;entryPerimeter=0;endArrow=oval;endFill=0;" parent="4KFNFi_MbAPsiKgZXLoy-1" source="L2eKXfHmUDSy7ZHA1HFd-19" target="L2eKXfHmUDSy7ZHA1HFd-32" edge="1">
          <mxGeometry relative="1" as="geometry">
            <Array as="points">
              <mxPoint x="518" y="185" />
              <mxPoint x="518" y="180" />
              <mxPoint x="518" y="180" />
            </Array>
            <mxPoint x="425" y="195" as="sourcePoint" />
            <mxPoint x="377.25" y="180.33999999999997" as="targetPoint" />
          </mxGeometry>
        </mxCell>
      </root>
    </mxGraphModel>
  </diagram>
  <diagram id="x9Kofppkp9sWu2ThvKLi" name="Interventi">
    <mxGraphModel dx="388" dy="208" grid="1" gridSize="10" guides="1" tooltips="1" connect="1" arrows="1" fold="1" page="1" pageScale="1" pageWidth="850" pageHeight="1100" math="0" shadow="0">
      <root>
        <mxCell id="RmB3jNXmYnbBXyCd_oPN-0" />
        <mxCell id="RmB3jNXmYnbBXyCd_oPN-1" parent="RmB3jNXmYnbBXyCd_oPN-0" />
        <mxCell id="_YQlTG-NR7-0RrBh5eBX-4" style="edgeStyle=orthogonalEdgeStyle;rounded=0;orthogonalLoop=1;jettySize=auto;html=1;exitX=1;exitY=0.25;exitDx=0;exitDy=0;entryX=-0.008;entryY=0.483;entryDx=0;entryDy=0;entryPerimeter=0;fontSize=8;endArrow=oval;endFill=0;" parent="RmB3jNXmYnbBXyCd_oPN-1" source="6INrb7ljUwT-f3C-am4B-0" target="_YQlTG-NR7-0RrBh5eBX-3" edge="1">
          <mxGeometry relative="1" as="geometry" />
        </mxCell>
        <mxCell id="_YQlTG-NR7-0RrBh5eBX-8" style="edgeStyle=orthogonalEdgeStyle;rounded=0;orthogonalLoop=1;jettySize=auto;html=1;exitX=1;exitY=0.75;exitDx=0;exitDy=0;entryX=-0.033;entryY=0.517;entryDx=0;entryDy=0;entryPerimeter=0;fontSize=8;endArrow=oval;endFill=0;" parent="RmB3jNXmYnbBXyCd_oPN-1" source="6INrb7ljUwT-f3C-am4B-0" target="_YQlTG-NR7-0RrBh5eBX-7" edge="1">
          <mxGeometry relative="1" as="geometry" />
        </mxCell>
        <mxCell id="LvHP8vPFR-3h1Y6amUUI-2" style="edgeStyle=orthogonalEdgeStyle;rounded=0;orthogonalLoop=1;jettySize=auto;html=1;exitX=0;exitY=0.25;exitDx=0;exitDy=0;entryX=0.453;entryY=1.031;entryDx=0;entryDy=0;entryPerimeter=0;endArrow=oval;endFill=0;" edge="1" parent="RmB3jNXmYnbBXyCd_oPN-1" source="6INrb7ljUwT-f3C-am4B-0" target="LvHP8vPFR-3h1Y6amUUI-1">
          <mxGeometry relative="1" as="geometry" />
        </mxCell>
        <mxCell id="6INrb7ljUwT-f3C-am4B-0" value="Intervento" style="whiteSpace=wrap;html=1;align=center;fillColor=#ffcc99;strokeColor=#36393d;" parent="RmB3jNXmYnbBXyCd_oPN-1" vertex="1">
          <mxGeometry x="240" y="220" width="100" height="40" as="geometry" />
        </mxCell>
        <mxCell id="6INrb7ljUwT-f3C-am4B-4" style="edgeStyle=orthogonalEdgeStyle;rounded=0;orthogonalLoop=1;jettySize=auto;html=1;exitX=0.5;exitY=0;exitDx=0;exitDy=0;entryX=0.5;entryY=0;entryDx=0;entryDy=0;fontSize=8;endArrow=none;endFill=0;" parent="RmB3jNXmYnbBXyCd_oPN-1" source="6INrb7ljUwT-f3C-am4B-1" target="6INrb7ljUwT-f3C-am4B-3" edge="1">
          <mxGeometry relative="1" as="geometry" />
        </mxCell>
        <mxCell id="6INrb7ljUwT-f3C-am4B-1" value="Intervento_Operatore" style="whiteSpace=wrap;html=1;align=center;fillColor=#ffcc99;strokeColor=#36393d;" parent="RmB3jNXmYnbBXyCd_oPN-1" vertex="1">
          <mxGeometry x="130" y="320" width="150" height="40" as="geometry" />
        </mxCell>
        <mxCell id="6INrb7ljUwT-f3C-am4B-3" value="Intervento_Utente" style="whiteSpace=wrap;html=1;align=center;fillColor=#ffcc99;strokeColor=#36393d;" parent="RmB3jNXmYnbBXyCd_oPN-1" vertex="1">
          <mxGeometry x="300" y="320" width="150" height="40" as="geometry" />
        </mxCell>
        <mxCell id="6INrb7ljUwT-f3C-am4B-5" value="" style="shape=flexArrow;endArrow=classic;html=1;fontSize=8;entryX=0.5;entryY=1;entryDx=0;entryDy=0;" parent="RmB3jNXmYnbBXyCd_oPN-1" target="6INrb7ljUwT-f3C-am4B-0" edge="1">
          <mxGeometry width="50" height="50" relative="1" as="geometry">
            <mxPoint x="290" y="300" as="sourcePoint" />
            <mxPoint x="150" y="260" as="targetPoint" />
          </mxGeometry>
        </mxCell>
        <mxCell id="6INrb7ljUwT-f3C-am4B-6" value="(t, e)" style="text;html=1;align=center;verticalAlign=middle;resizable=0;points=[];autosize=1;strokeColor=none;fontSize=8;" parent="RmB3jNXmYnbBXyCd_oPN-1" vertex="1">
          <mxGeometry x="295" y="280" width="30" height="20" as="geometry" />
        </mxCell>
        <mxCell id="6INrb7ljUwT-f3C-am4B-7" value="Segnalazione" style="whiteSpace=wrap;html=1;align=center;fillColor=#ffcc99;strokeColor=#36393d;" parent="RmB3jNXmYnbBXyCd_oPN-1" vertex="1">
          <mxGeometry x="240" y="40" width="100" height="40" as="geometry" />
        </mxCell>
        <mxCell id="_YQlTG-NR7-0RrBh5eBX-1" value="(1, 1)" style="edgeStyle=orthogonalEdgeStyle;rounded=0;orthogonalLoop=1;jettySize=auto;html=1;exitX=0.5;exitY=1;exitDx=0;exitDy=0;entryX=0.5;entryY=0;entryDx=0;entryDy=0;fontSize=8;endArrow=none;endFill=0;" parent="RmB3jNXmYnbBXyCd_oPN-1" source="_YQlTG-NR7-0RrBh5eBX-0" target="6INrb7ljUwT-f3C-am4B-0" edge="1">
          <mxGeometry relative="1" as="geometry" />
        </mxCell>
        <mxCell id="_YQlTG-NR7-0RrBh5eBX-2" value="(0, N)" style="edgeStyle=orthogonalEdgeStyle;rounded=0;orthogonalLoop=1;jettySize=auto;html=1;exitX=0.5;exitY=0;exitDx=0;exitDy=0;entryX=0.5;entryY=1;entryDx=0;entryDy=0;fontSize=8;endArrow=none;endFill=0;" parent="RmB3jNXmYnbBXyCd_oPN-1" source="_YQlTG-NR7-0RrBh5eBX-0" target="6INrb7ljUwT-f3C-am4B-7" edge="1">
          <mxGeometry relative="1" as="geometry" />
        </mxCell>
        <mxCell id="_YQlTG-NR7-0RrBh5eBX-0" value="Interviene" style="shape=rhombus;perimeter=rhombusPerimeter;whiteSpace=wrap;html=1;align=center;fillColor=#cdeb8b;strokeColor=#36393d;" parent="RmB3jNXmYnbBXyCd_oPN-1" vertex="1">
          <mxGeometry x="240" y="120" width="100" height="60" as="geometry" />
        </mxCell>
        <mxCell id="_YQlTG-NR7-0RrBh5eBX-3" value="Numero" style="text;html=1;align=center;verticalAlign=middle;resizable=0;points=[];autosize=1;strokeColor=none;fontSize=8;" parent="RmB3jNXmYnbBXyCd_oPN-1" vertex="1">
          <mxGeometry x="360" y="220" width="40" height="20" as="geometry" />
        </mxCell>
        <mxCell id="_YQlTG-NR7-0RrBh5eBX-5" value="" style="endArrow=oval;html=1;fontSize=8;endFill=1;" parent="RmB3jNXmYnbBXyCd_oPN-1" edge="1">
          <mxGeometry width="50" height="50" relative="1" as="geometry">
            <mxPoint x="260" y="110" as="sourcePoint" />
            <mxPoint x="350" y="240" as="targetPoint" />
            <Array as="points">
              <mxPoint x="350" y="110" />
            </Array>
          </mxGeometry>
        </mxCell>
        <mxCell id="_YQlTG-NR7-0RrBh5eBX-7" value="Messaggio" style="text;html=1;align=center;verticalAlign=middle;resizable=0;points=[];autosize=1;strokeColor=none;fontSize=8;" parent="RmB3jNXmYnbBXyCd_oPN-1" vertex="1">
          <mxGeometry x="360" y="240" width="50" height="20" as="geometry" />
        </mxCell>
        <mxCell id="_YQlTG-NR7-0RrBh5eBX-9" value="Operatore" style="whiteSpace=wrap;html=1;align=center;fillColor=#ffcc99;strokeColor=#36393d;" parent="RmB3jNXmYnbBXyCd_oPN-1" vertex="1">
          <mxGeometry x="50" y="130" width="100" height="40" as="geometry" />
        </mxCell>
        <mxCell id="_YQlTG-NR7-0RrBh5eBX-11" value="(1, 1)" style="edgeStyle=orthogonalEdgeStyle;rounded=0;orthogonalLoop=1;jettySize=auto;html=1;exitX=0.5;exitY=1;exitDx=0;exitDy=0;entryX=0;entryY=0.5;entryDx=0;entryDy=0;fontSize=8;endArrow=none;endFill=0;" parent="RmB3jNXmYnbBXyCd_oPN-1" source="_YQlTG-NR7-0RrBh5eBX-10" target="6INrb7ljUwT-f3C-am4B-1" edge="1">
          <mxGeometry relative="1" as="geometry" />
        </mxCell>
        <mxCell id="_YQlTG-NR7-0RrBh5eBX-12" value="(0, N)" style="edgeStyle=orthogonalEdgeStyle;rounded=0;orthogonalLoop=1;jettySize=auto;html=1;exitX=0.5;exitY=0;exitDx=0;exitDy=0;entryX=0.5;entryY=1;entryDx=0;entryDy=0;fontSize=8;endArrow=none;endFill=0;" parent="RmB3jNXmYnbBXyCd_oPN-1" source="_YQlTG-NR7-0RrBh5eBX-10" target="_YQlTG-NR7-0RrBh5eBX-9" edge="1">
          <mxGeometry relative="1" as="geometry" />
        </mxCell>
        <mxCell id="_YQlTG-NR7-0RrBh5eBX-10" value="Operatore_Interviene" style="shape=rhombus;perimeter=rhombusPerimeter;whiteSpace=wrap;html=1;align=center;fillColor=#cdeb8b;strokeColor=#36393d;" parent="RmB3jNXmYnbBXyCd_oPN-1" vertex="1">
          <mxGeometry x="20" y="230" width="160" height="60" as="geometry" />
        </mxCell>
        <mxCell id="_YQlTG-NR7-0RrBh5eBX-13" value="Utente" style="whiteSpace=wrap;html=1;align=center;fillColor=#ffcc99;strokeColor=#36393d;" parent="RmB3jNXmYnbBXyCd_oPN-1" vertex="1">
          <mxGeometry x="425" y="130" width="100" height="40" as="geometry" />
        </mxCell>
        <mxCell id="_YQlTG-NR7-0RrBh5eBX-15" value="(1, 1)" style="edgeStyle=orthogonalEdgeStyle;rounded=0;orthogonalLoop=1;jettySize=auto;html=1;exitX=0.5;exitY=1;exitDx=0;exitDy=0;entryX=1;entryY=0.5;entryDx=0;entryDy=0;fontSize=8;endArrow=none;endFill=0;" parent="RmB3jNXmYnbBXyCd_oPN-1" source="_YQlTG-NR7-0RrBh5eBX-14" target="6INrb7ljUwT-f3C-am4B-3" edge="1">
          <mxGeometry relative="1" as="geometry" />
        </mxCell>
        <mxCell id="_YQlTG-NR7-0RrBh5eBX-16" value="(0, N)" style="edgeStyle=orthogonalEdgeStyle;rounded=0;orthogonalLoop=1;jettySize=auto;html=1;exitX=0.5;exitY=0;exitDx=0;exitDy=0;entryX=0.5;entryY=1;entryDx=0;entryDy=0;fontSize=8;endArrow=none;endFill=0;" parent="RmB3jNXmYnbBXyCd_oPN-1" source="_YQlTG-NR7-0RrBh5eBX-14" target="_YQlTG-NR7-0RrBh5eBX-13" edge="1">
          <mxGeometry relative="1" as="geometry" />
        </mxCell>
        <mxCell id="_YQlTG-NR7-0RrBh5eBX-14" value="Utente_Interviene" style="shape=rhombus;perimeter=rhombusPerimeter;whiteSpace=wrap;html=1;align=center;fillColor=#cdeb8b;strokeColor=#36393d;" parent="RmB3jNXmYnbBXyCd_oPN-1" vertex="1">
          <mxGeometry x="412.5" y="230" width="125" height="60" as="geometry" />
        </mxCell>
        <mxCell id="LvHP8vPFR-3h1Y6amUUI-1" value="DataIntervento" style="text;html=1;align=center;verticalAlign=middle;resizable=0;points=[];autosize=1;strokeColor=none;fontSize=8;" vertex="1" parent="RmB3jNXmYnbBXyCd_oPN-1">
          <mxGeometry x="170" y="200" width="70" height="20" as="geometry" />
        </mxCell>
      </root>
    </mxGraphModel>
  </diagram>
  <diagram id="RZ5br9xlVx01tnDw5d4U" name="Interventi-Reificato">
    <mxGraphModel dx="466" dy="250" grid="1" gridSize="10" guides="1" tooltips="1" connect="1" arrows="1" fold="1" page="1" pageScale="1" pageWidth="850" pageHeight="1100" math="0" shadow="0">
      <root>
        <mxCell id="DLePBt0Fw-7xltVhm5yh-0" />
        <mxCell id="DLePBt0Fw-7xltVhm5yh-1" parent="DLePBt0Fw-7xltVhm5yh-0" />
        <mxCell id="DqCi6e8nAlBrvmUL6HNm-0" style="edgeStyle=orthogonalEdgeStyle;rounded=0;orthogonalLoop=1;jettySize=auto;html=1;exitX=1;exitY=0.25;exitDx=0;exitDy=0;entryX=-0.008;entryY=0.483;entryDx=0;entryDy=0;entryPerimeter=0;fontSize=8;endArrow=oval;endFill=0;" parent="DLePBt0Fw-7xltVhm5yh-1" source="DqCi6e8nAlBrvmUL6HNm-2" target="DqCi6e8nAlBrvmUL6HNm-12" edge="1">
          <mxGeometry relative="1" as="geometry" />
        </mxCell>
        <mxCell id="DqCi6e8nAlBrvmUL6HNm-1" style="edgeStyle=orthogonalEdgeStyle;rounded=0;orthogonalLoop=1;jettySize=auto;html=1;exitX=1;exitY=0.75;exitDx=0;exitDy=0;entryX=-0.033;entryY=0.517;entryDx=0;entryDy=0;entryPerimeter=0;fontSize=8;endArrow=oval;endFill=0;" parent="DLePBt0Fw-7xltVhm5yh-1" source="DqCi6e8nAlBrvmUL6HNm-2" target="DqCi6e8nAlBrvmUL6HNm-14" edge="1">
          <mxGeometry relative="1" as="geometry" />
        </mxCell>
        <mxCell id="DqCi6e8nAlBrvmUL6HNm-25" value="(0, 1)" style="edgeStyle=orthogonalEdgeStyle;rounded=0;orthogonalLoop=1;jettySize=auto;html=1;exitX=0.75;exitY=1;exitDx=0;exitDy=0;endArrow=none;endFill=0;entryX=0.5;entryY=1;entryDx=0;entryDy=0;" parent="DLePBt0Fw-7xltVhm5yh-1" source="DqCi6e8nAlBrvmUL6HNm-2" target="2Ib52iEqMei3eTLwuVIz-0" edge="1">
          <mxGeometry relative="1" as="geometry">
            <mxPoint x="490.0000000000002" y="269.9999999999999" as="targetPoint" />
            <Array as="points">
              <mxPoint x="315" y="290" />
              <mxPoint x="490" y="290" />
            </Array>
          </mxGeometry>
        </mxCell>
        <mxCell id="DqCi6e8nAlBrvmUL6HNm-2" value="Intervento" style="whiteSpace=wrap;html=1;align=center;fillColor=#ffcc99;strokeColor=#36393d;" parent="DLePBt0Fw-7xltVhm5yh-1" vertex="1">
          <mxGeometry x="240" y="220" width="100" height="40" as="geometry" />
        </mxCell>
        <mxCell id="DqCi6e8nAlBrvmUL6HNm-31" value="(0, N)" style="edgeStyle=orthogonalEdgeStyle;rounded=0;orthogonalLoop=1;jettySize=auto;html=1;exitX=0.5;exitY=1;exitDx=0;exitDy=0;endArrow=none;endFill=0;" parent="DLePBt0Fw-7xltVhm5yh-1" source="DqCi6e8nAlBrvmUL6HNm-8" target="DqCi6e8nAlBrvmUL6HNm-11" edge="1">
          <mxGeometry relative="1" as="geometry" />
        </mxCell>
        <mxCell id="DqCi6e8nAlBrvmUL6HNm-8" value="Segnalazione" style="whiteSpace=wrap;html=1;align=center;fillColor=#ffcc99;strokeColor=#36393d;" parent="DLePBt0Fw-7xltVhm5yh-1" vertex="1">
          <mxGeometry x="240" y="40" width="100" height="40" as="geometry" />
        </mxCell>
        <mxCell id="DqCi6e8nAlBrvmUL6HNm-28" value="(1, 1)" style="edgeStyle=orthogonalEdgeStyle;rounded=0;orthogonalLoop=1;jettySize=auto;html=1;exitX=0.5;exitY=1;exitDx=0;exitDy=0;entryX=0.5;entryY=0;entryDx=0;entryDy=0;endArrow=none;endFill=0;" parent="DLePBt0Fw-7xltVhm5yh-1" source="DqCi6e8nAlBrvmUL6HNm-11" target="DqCi6e8nAlBrvmUL6HNm-2" edge="1">
          <mxGeometry relative="1" as="geometry" />
        </mxCell>
        <mxCell id="DqCi6e8nAlBrvmUL6HNm-11" value="Interviene" style="shape=rhombus;perimeter=rhombusPerimeter;whiteSpace=wrap;html=1;align=center;fillColor=#cdeb8b;strokeColor=#36393d;" parent="DLePBt0Fw-7xltVhm5yh-1" vertex="1">
          <mxGeometry x="240" y="120" width="100" height="60" as="geometry" />
        </mxCell>
        <mxCell id="DqCi6e8nAlBrvmUL6HNm-12" value="Numero" style="text;html=1;align=center;verticalAlign=middle;resizable=0;points=[];autosize=1;strokeColor=none;fontSize=8;" parent="DLePBt0Fw-7xltVhm5yh-1" vertex="1">
          <mxGeometry x="360" y="220" width="40" height="20" as="geometry" />
        </mxCell>
        <mxCell id="DqCi6e8nAlBrvmUL6HNm-13" value="" style="endArrow=oval;html=1;fontSize=8;endFill=1;" parent="DLePBt0Fw-7xltVhm5yh-1" edge="1">
          <mxGeometry width="50" height="50" relative="1" as="geometry">
            <mxPoint x="260" y="110" as="sourcePoint" />
            <mxPoint x="350" y="240" as="targetPoint" />
            <Array as="points">
              <mxPoint x="350" y="110" />
            </Array>
          </mxGeometry>
        </mxCell>
        <mxCell id="DqCi6e8nAlBrvmUL6HNm-14" value="Messaggio" style="text;html=1;align=center;verticalAlign=middle;resizable=0;points=[];autosize=1;strokeColor=none;fontSize=8;" parent="DLePBt0Fw-7xltVhm5yh-1" vertex="1">
          <mxGeometry x="360" y="240" width="50" height="20" as="geometry" />
        </mxCell>
        <mxCell id="DqCi6e8nAlBrvmUL6HNm-32" value="(0, N)" style="edgeStyle=orthogonalEdgeStyle;rounded=0;orthogonalLoop=1;jettySize=auto;html=1;exitX=0.5;exitY=1;exitDx=0;exitDy=0;entryX=0.5;entryY=0;entryDx=0;entryDy=0;endArrow=none;endFill=0;" parent="DLePBt0Fw-7xltVhm5yh-1" source="DqCi6e8nAlBrvmUL6HNm-15" target="02brOJXWt_X8BDRF4EZL-0" edge="1">
          <mxGeometry relative="1" as="geometry">
            <mxPoint x="100" y="209.9999999999999" as="targetPoint" />
          </mxGeometry>
        </mxCell>
        <mxCell id="DqCi6e8nAlBrvmUL6HNm-15" value="Operatore" style="whiteSpace=wrap;html=1;align=center;fillColor=#ffcc99;strokeColor=#36393d;" parent="DLePBt0Fw-7xltVhm5yh-1" vertex="1">
          <mxGeometry x="50" y="120" width="100" height="40" as="geometry" />
        </mxCell>
        <mxCell id="DqCi6e8nAlBrvmUL6HNm-23" value="(0, 1)" style="edgeStyle=orthogonalEdgeStyle;rounded=0;orthogonalLoop=1;jettySize=auto;html=1;exitX=0.5;exitY=1;exitDx=0;exitDy=0;entryX=0.25;entryY=1;entryDx=0;entryDy=0;endArrow=none;endFill=0;" parent="DLePBt0Fw-7xltVhm5yh-1" source="02brOJXWt_X8BDRF4EZL-0" target="DqCi6e8nAlBrvmUL6HNm-2" edge="1">
          <mxGeometry relative="1" as="geometry">
            <mxPoint x="100" y="269.9999999999999" as="sourcePoint" />
          </mxGeometry>
        </mxCell>
        <mxCell id="DqCi6e8nAlBrvmUL6HNm-26" value="(0, N)" style="edgeStyle=orthogonalEdgeStyle;rounded=0;orthogonalLoop=1;jettySize=auto;html=1;exitX=0.5;exitY=1;exitDx=0;exitDy=0;endArrow=none;endFill=0;entryX=0.5;entryY=0;entryDx=0;entryDy=0;" parent="DLePBt0Fw-7xltVhm5yh-1" source="DqCi6e8nAlBrvmUL6HNm-19" target="2Ib52iEqMei3eTLwuVIz-0" edge="1">
          <mxGeometry relative="1" as="geometry">
            <mxPoint x="490.0000000000002" y="209.9999999999999" as="targetPoint" />
          </mxGeometry>
        </mxCell>
        <mxCell id="DqCi6e8nAlBrvmUL6HNm-19" value="Utente" style="whiteSpace=wrap;html=1;align=center;fillColor=#ffcc99;strokeColor=#36393d;" parent="DLePBt0Fw-7xltVhm5yh-1" vertex="1">
          <mxGeometry x="440" y="120" width="100" height="40" as="geometry" />
        </mxCell>
        <mxCell id="YZSy2ZC63vazYDJoitvn-0" value="solo uno tra operatore e utente potrà essere presente" style="shape=note;size=20;whiteSpace=wrap;html=1;" parent="DLePBt0Fw-7xltVhm5yh-1" vertex="1">
          <mxGeometry x="240" y="300" width="100" height="100" as="geometry" />
        </mxCell>
        <mxCell id="02brOJXWt_X8BDRF4EZL-0" value="Operatore_Interviene" style="shape=rhombus;perimeter=rhombusPerimeter;whiteSpace=wrap;html=1;align=center;fillColor=#cdeb8b;strokeColor=#36393d;" parent="DLePBt0Fw-7xltVhm5yh-1" vertex="1">
          <mxGeometry x="20" y="210" width="160" height="60" as="geometry" />
        </mxCell>
        <mxCell id="2Ib52iEqMei3eTLwuVIz-0" value="Utente_Interviene" style="shape=rhombus;perimeter=rhombusPerimeter;whiteSpace=wrap;html=1;align=center;fillColor=#cdeb8b;strokeColor=#36393d;" parent="DLePBt0Fw-7xltVhm5yh-1" vertex="1">
          <mxGeometry x="427.5" y="210" width="125" height="60" as="geometry" />
        </mxCell>
        <mxCell id="lx_Gu_P2vjdbYCsj4NeI-0" style="edgeStyle=orthogonalEdgeStyle;rounded=0;orthogonalLoop=1;jettySize=auto;html=1;exitX=0;exitY=0.25;exitDx=0;exitDy=0;entryX=0.453;entryY=1.031;entryDx=0;entryDy=0;entryPerimeter=0;endArrow=oval;endFill=0;" edge="1" parent="DLePBt0Fw-7xltVhm5yh-1" target="lx_Gu_P2vjdbYCsj4NeI-1">
          <mxGeometry relative="1" as="geometry">
            <mxPoint x="240" y="230" as="sourcePoint" />
          </mxGeometry>
        </mxCell>
        <mxCell id="lx_Gu_P2vjdbYCsj4NeI-1" value="DataIntervento" style="text;html=1;align=center;verticalAlign=middle;resizable=0;points=[];autosize=1;strokeColor=none;fontSize=8;" vertex="1" parent="DLePBt0Fw-7xltVhm5yh-1">
          <mxGeometry x="170" y="200" width="70" height="20" as="geometry" />
        </mxCell>
      </root>
    </mxGraphModel>
  </diagram>
  <diagram id="Fh5-VvCpUGy5CXPiN9-E" name="Tracciamento">
    <mxGraphModel dx="1398" dy="749" grid="1" gridSize="10" guides="1" tooltips="1" connect="1" arrows="1" fold="1" page="1" pageScale="1" pageWidth="850" pageHeight="1100" math="0" shadow="0">
      <root>
        <mxCell id="41sefZjJck6-EsbQEFKc-0" />
        <mxCell id="41sefZjJck6-EsbQEFKc-1" parent="41sefZjJck6-EsbQEFKc-0" />
        <mxCell id="apcU6oQEwI7S9UVm4ZA_-8" value="Versione" style="whiteSpace=wrap;html=1;align=center;fillColor=#ffcc99;strokeColor=#36393d;" parent="41sefZjJck6-EsbQEFKc-1" vertex="1">
          <mxGeometry x="240" y="450" width="100" height="40" as="geometry" />
        </mxCell>
        <mxCell id="eQLPbUT0OgT2K8X5vChd-36" style="edgeStyle=orthogonalEdgeStyle;rounded=0;orthogonalLoop=1;jettySize=auto;html=1;exitX=0;exitY=0.25;exitDx=0;exitDy=0;entryX=1.01;entryY=0.51;entryDx=0;entryDy=0;entryPerimeter=0;fontSize=8;endArrow=oval;endFill=1;" parent="41sefZjJck6-EsbQEFKc-1" source="eQLPbUT0OgT2K8X5vChd-14" target="eQLPbUT0OgT2K8X5vChd-34" edge="1">
          <mxGeometry relative="1" as="geometry" />
        </mxCell>
        <mxCell id="eQLPbUT0OgT2K8X5vChd-37" style="edgeStyle=orthogonalEdgeStyle;rounded=0;orthogonalLoop=1;jettySize=auto;html=1;exitX=0;exitY=0.75;exitDx=0;exitDy=0;entryX=1.033;entryY=0.49;entryDx=0;entryDy=0;entryPerimeter=0;fontSize=8;endArrow=oval;endFill=0;" parent="41sefZjJck6-EsbQEFKc-1" source="eQLPbUT0OgT2K8X5vChd-14" target="eQLPbUT0OgT2K8X5vChd-35" edge="1">
          <mxGeometry relative="1" as="geometry" />
        </mxCell>
        <mxCell id="eQLPbUT0OgT2K8X5vChd-14" value="Download" style="whiteSpace=wrap;html=1;align=center;fillColor=#ffcc99;strokeColor=#36393d;" parent="41sefZjJck6-EsbQEFKc-1" vertex="1">
          <mxGeometry x="150" y="630" width="100" height="40" as="geometry" />
        </mxCell>
        <mxCell id="eQLPbUT0OgT2K8X5vChd-32" style="edgeStyle=orthogonalEdgeStyle;rounded=0;orthogonalLoop=1;jettySize=auto;html=1;exitX=1;exitY=0.25;exitDx=0;exitDy=0;entryX=-0.09;entryY=0.47;entryDx=0;entryDy=0;entryPerimeter=0;fontSize=8;endArrow=oval;endFill=1;" parent="41sefZjJck6-EsbQEFKc-1" source="eQLPbUT0OgT2K8X5vChd-15" target="eQLPbUT0OgT2K8X5vChd-30" edge="1">
          <mxGeometry relative="1" as="geometry" />
        </mxCell>
        <mxCell id="eQLPbUT0OgT2K8X5vChd-33" style="edgeStyle=orthogonalEdgeStyle;rounded=0;orthogonalLoop=1;jettySize=auto;html=1;exitX=1;exitY=0.75;exitDx=0;exitDy=0;entryX=-0.06;entryY=0.53;entryDx=0;entryDy=0;entryPerimeter=0;fontSize=8;endArrow=oval;endFill=0;" parent="41sefZjJck6-EsbQEFKc-1" source="eQLPbUT0OgT2K8X5vChd-15" target="eQLPbUT0OgT2K8X5vChd-31" edge="1">
          <mxGeometry relative="1" as="geometry" />
        </mxCell>
        <mxCell id="eQLPbUT0OgT2K8X5vChd-15" value="Visualizzazione" style="whiteSpace=wrap;html=1;align=center;fillColor=#ffcc99;strokeColor=#36393d;" parent="41sefZjJck6-EsbQEFKc-1" vertex="1">
          <mxGeometry x="330" y="630" width="100" height="40" as="geometry" />
        </mxCell>
        <mxCell id="eQLPbUT0OgT2K8X5vChd-17" value="(0, N)" style="edgeStyle=orthogonalEdgeStyle;rounded=0;orthogonalLoop=1;jettySize=auto;html=1;exitX=0.5;exitY=0;exitDx=0;exitDy=0;entryX=0.25;entryY=1;entryDx=0;entryDy=0;fontSize=8;endArrow=none;endFill=0;" parent="41sefZjJck6-EsbQEFKc-1" source="eQLPbUT0OgT2K8X5vChd-16" target="apcU6oQEwI7S9UVm4ZA_-8" edge="1">
          <mxGeometry relative="1" as="geometry" />
        </mxCell>
        <mxCell id="eQLPbUT0OgT2K8X5vChd-20" value="(1, 1)" style="edgeStyle=orthogonalEdgeStyle;rounded=0;orthogonalLoop=1;jettySize=auto;html=1;exitX=0.5;exitY=1;exitDx=0;exitDy=0;entryX=0.5;entryY=0;entryDx=0;entryDy=0;fontSize=8;endArrow=none;endFill=0;" parent="41sefZjJck6-EsbQEFKc-1" source="eQLPbUT0OgT2K8X5vChd-16" target="eQLPbUT0OgT2K8X5vChd-14" edge="1">
          <mxGeometry relative="1" as="geometry" />
        </mxCell>
        <mxCell id="eQLPbUT0OgT2K8X5vChd-16" value="Versione Scaricata" style="shape=rhombus;perimeter=rhombusPerimeter;whiteSpace=wrap;html=1;align=center;fillColor=#cdeb8b;strokeColor=#36393d;" parent="41sefZjJck6-EsbQEFKc-1" vertex="1">
          <mxGeometry x="140" y="530" width="120" height="60" as="geometry" />
        </mxCell>
        <mxCell id="eQLPbUT0OgT2K8X5vChd-19" value="(0, N)" style="edgeStyle=orthogonalEdgeStyle;rounded=0;orthogonalLoop=1;jettySize=auto;html=1;exitX=0.5;exitY=0;exitDx=0;exitDy=0;entryX=0.75;entryY=1;entryDx=0;entryDy=0;fontSize=8;endArrow=none;endFill=0;" parent="41sefZjJck6-EsbQEFKc-1" source="eQLPbUT0OgT2K8X5vChd-18" target="apcU6oQEwI7S9UVm4ZA_-8" edge="1">
          <mxGeometry relative="1" as="geometry" />
        </mxCell>
        <mxCell id="eQLPbUT0OgT2K8X5vChd-21" value="(1, 1)" style="edgeStyle=orthogonalEdgeStyle;rounded=0;orthogonalLoop=1;jettySize=auto;html=1;exitX=0.5;exitY=1;exitDx=0;exitDy=0;entryX=0.5;entryY=0;entryDx=0;entryDy=0;fontSize=8;endArrow=none;endFill=0;" parent="41sefZjJck6-EsbQEFKc-1" source="eQLPbUT0OgT2K8X5vChd-18" target="eQLPbUT0OgT2K8X5vChd-15" edge="1">
          <mxGeometry relative="1" as="geometry" />
        </mxCell>
        <mxCell id="eQLPbUT0OgT2K8X5vChd-18" value="Versione Visualizzata" style="shape=rhombus;perimeter=rhombusPerimeter;whiteSpace=wrap;html=1;align=center;fillColor=#cdeb8b;strokeColor=#36393d;" parent="41sefZjJck6-EsbQEFKc-1" vertex="1">
          <mxGeometry x="310" y="530" width="140" height="60" as="geometry" />
        </mxCell>
        <mxCell id="eQLPbUT0OgT2K8X5vChd-22" value="Utente" style="whiteSpace=wrap;html=1;align=center;fillColor=#ffcc99;strokeColor=#36393d;" parent="41sefZjJck6-EsbQEFKc-1" vertex="1">
          <mxGeometry x="240" y="820" width="100" height="40" as="geometry" />
        </mxCell>
        <mxCell id="eQLPbUT0OgT2K8X5vChd-26" value="(1, 1)" style="edgeStyle=orthogonalEdgeStyle;rounded=0;orthogonalLoop=1;jettySize=auto;html=1;exitX=0.5;exitY=0;exitDx=0;exitDy=0;entryX=0.5;entryY=1;entryDx=0;entryDy=0;fontSize=8;endArrow=none;endFill=0;" parent="41sefZjJck6-EsbQEFKc-1" source="eQLPbUT0OgT2K8X5vChd-23" target="eQLPbUT0OgT2K8X5vChd-14" edge="1">
          <mxGeometry relative="1" as="geometry" />
        </mxCell>
        <mxCell id="eQLPbUT0OgT2K8X5vChd-28" value="(0, N)" style="edgeStyle=orthogonalEdgeStyle;rounded=0;orthogonalLoop=1;jettySize=auto;html=1;exitX=0.5;exitY=1;exitDx=0;exitDy=0;entryX=0.25;entryY=0;entryDx=0;entryDy=0;fontSize=8;endArrow=none;endFill=0;" parent="41sefZjJck6-EsbQEFKc-1" source="eQLPbUT0OgT2K8X5vChd-23" target="eQLPbUT0OgT2K8X5vChd-22" edge="1">
          <mxGeometry relative="1" as="geometry" />
        </mxCell>
        <mxCell id="eQLPbUT0OgT2K8X5vChd-23" value="Utente Scarica" style="shape=rhombus;perimeter=rhombusPerimeter;whiteSpace=wrap;html=1;align=center;fillColor=#cdeb8b;strokeColor=#36393d;" parent="41sefZjJck6-EsbQEFKc-1" vertex="1">
          <mxGeometry x="140" y="710" width="120" height="60" as="geometry" />
        </mxCell>
        <mxCell id="eQLPbUT0OgT2K8X5vChd-25" value="(1, 1)" style="edgeStyle=orthogonalEdgeStyle;rounded=0;orthogonalLoop=1;jettySize=auto;html=1;exitX=0.5;exitY=0;exitDx=0;exitDy=0;entryX=0.5;entryY=1;entryDx=0;entryDy=0;fontSize=8;endArrow=none;endFill=0;" parent="41sefZjJck6-EsbQEFKc-1" source="eQLPbUT0OgT2K8X5vChd-24" target="eQLPbUT0OgT2K8X5vChd-15" edge="1">
          <mxGeometry relative="1" as="geometry" />
        </mxCell>
        <mxCell id="eQLPbUT0OgT2K8X5vChd-29" value="(0, N)" style="edgeStyle=orthogonalEdgeStyle;rounded=0;orthogonalLoop=1;jettySize=auto;html=1;exitX=0.5;exitY=1;exitDx=0;exitDy=0;entryX=0.75;entryY=0;entryDx=0;entryDy=0;fontSize=8;endArrow=none;endFill=0;" parent="41sefZjJck6-EsbQEFKc-1" source="eQLPbUT0OgT2K8X5vChd-24" target="eQLPbUT0OgT2K8X5vChd-22" edge="1">
          <mxGeometry relative="1" as="geometry" />
        </mxCell>
        <mxCell id="eQLPbUT0OgT2K8X5vChd-24" value="Utente Visualizza" style="shape=rhombus;perimeter=rhombusPerimeter;whiteSpace=wrap;html=1;align=center;fillColor=#cdeb8b;strokeColor=#36393d;" parent="41sefZjJck6-EsbQEFKc-1" vertex="1">
          <mxGeometry x="320" y="710" width="120" height="60" as="geometry" />
        </mxCell>
        <mxCell id="eQLPbUT0OgT2K8X5vChd-30" value="Id" style="text;html=1;align=center;verticalAlign=middle;resizable=0;points=[];autosize=1;strokeColor=none;fontSize=8;" parent="41sefZjJck6-EsbQEFKc-1" vertex="1">
          <mxGeometry x="450" y="630" width="20" height="20" as="geometry" />
        </mxCell>
        <mxCell id="eQLPbUT0OgT2K8X5vChd-31" value="DataVisualizzazione" style="text;html=1;align=center;verticalAlign=middle;resizable=0;points=[];autosize=1;strokeColor=none;fontSize=8;" parent="41sefZjJck6-EsbQEFKc-1" vertex="1">
          <mxGeometry x="450" y="650" width="90" height="20" as="geometry" />
        </mxCell>
        <mxCell id="eQLPbUT0OgT2K8X5vChd-34" value="Id" style="text;html=1;align=center;verticalAlign=middle;resizable=0;points=[];autosize=1;strokeColor=none;fontSize=8;" parent="41sefZjJck6-EsbQEFKc-1" vertex="1">
          <mxGeometry x="110" y="630" width="20" height="20" as="geometry" />
        </mxCell>
        <mxCell id="eQLPbUT0OgT2K8X5vChd-35" value="DataDownload" style="text;html=1;align=center;verticalAlign=middle;resizable=0;points=[];autosize=1;strokeColor=none;fontSize=8;" parent="41sefZjJck6-EsbQEFKc-1" vertex="1">
          <mxGeometry x="60" y="650" width="70" height="20" as="geometry" />
        </mxCell>
      </root>
    </mxGraphModel>
  </diagram>
</mxfile>
